<?xml version="1.0" standalone="no"?>
<!DOCTYPE svg PUBLIC "-//W3C//DTD SVG 20010904//EN"
 "http://www.w3.org/TR/2001/REC-SVG-20010904/DTD/svg10.dtd">
<svg version="1.0" xmlns="http://www.w3.org/2000/svg"
 width="16.000000pt" height="16.000000pt" viewBox="0 0 16.000000 16.000000"
 preserveAspectRatio="xMidYMid meet">
<metadata>
Created by potrace 1.11, written by Peter Selinger 2001-2013
</metadata>
<g transform="translate(0.000000,16.000000) scale(0.006154,-0.006154)"
fill="#000000" stroke="none">
<path d="M721 2455 c-74 -17 -314 -130 -371 -175 -48 -38 -112 -132 -140 -208
-21 -53 -21 -63 -11 -143 21 -164 84 -286 248 -486 161 -196 188 -243 256
-453 31 -93 31 -100 31 -280 0 -150 -4 -204 -22 -285 -37 -176 -67 -237 -130
-273 -76 -42 -158 -18 -238 71 -93 104 -118 192 -111 387 4 118 9 149 40 246
41 129 74 199 111 233 35 33 33 49 -9 67 -76 31 -175 7 -228 -56 -40 -48 -60
-91 -103 -225 -35 -111 -38 -131 -42 -267 -7 -230 29 -333 157 -451 162 -150
450 -170 638 -44 86 58 121 145 163 402 34 208 22 350 -46 546 -54 155 -92
221 -239 404 -185 232 -245 358 -245 515 0 52 6 77 30 123 54 106 81 131 213
198 113 57 126 61 173 56 70 -7 125 -37 171 -94 21 -26 63 -78 94 -116 92
-109 129 -194 210 -474 13 -43 77 -68 150 -60 73 9 95 26 114 94 92 325 158
477 236 547 28 25 82 61 121 81 89 44 165 48 243 11 83 -38 119 -90 155 -226
19 -73 22 -102 18 -210 -5 -138 -26 -211 -95 -336 -54 -99 -331 -472 -393
-529 -46 -43 -132 -159 -173 -235 -61 -111 -84 -265 -53 -353 37 -102 123
-213 210 -269 93 -60 179 -83 316 -83 112 0 117 1 192 37 101 48 161 104 189
176 19 50 22 77 23 212 1 146 0 158 -24 204 -33 65 -72 86 -161 86 -49 0 -73
-5 -89 -18 l-22 -18 26 -38 c34 -51 39 -80 34 -248 -3 -115 -7 -150 -22 -178
-42 -79 -113 -126 -178 -117 -85 11 -184 102 -244 224 -24 49 -26 61 -22 155
3 94 7 110 40 181 40 84 107 179 172 242 66 65 334 423 392 526 96 167 130
294 121 444 -10 157 -74 328 -141 378 -121 91 -200 111 -419 106 l-154 -4
-106 -53 c-151 -75 -213 -135 -279 -269 -28 -56 -52 -103 -54 -103 -2 0 -18
21 -36 48 -17 26 -59 80 -93 121 -144 177 -176 200 -332 240 -112 29 -186 33
-262 16z"/>
<path d="M662 1990 c-12 -5 -25 -16 -28 -25 -8 -19 33 -87 120 -203 180 -237
199 -270 256 -437 37 -111 59 -160 74 -169 33 -21 92 -28 135 -16 64 17 66 25
28 141 -77 231 -97 269 -237 445 -32 40 -83 111 -115 158 -32 48 -70 93 -86
101 -31 17 -111 19 -147 5z"/>
<path d="M2044 1971 c-94 -24 -180 -120 -326 -366 -36 -60 -81 -135 -100 -165
-48 -75 -109 -214 -115 -261 -5 -37 -4 -40 30 -54 75 -31 171 -9 183 42 30
131 319 612 424 706 53 48 61 70 31 86 -27 15 -92 21 -127 12z"/>
<path d="M1132 950 c-52 -12 -69 -35 -81 -108 -15 -93 -19 -230 -8 -271 5 -18
29 -55 54 -82 59 -63 117 -83 220 -77 111 7 143 33 212 170 52 104 54 110 59
206 5 100 5 100 -23 118 -35 23 -134 24 -168 1 -23 -15 -25 -23 -29 -109 -3
-74 -10 -106 -33 -158 -50 -115 -72 -118 -79 -10 -3 62 3 139 19 242 6 42 5
48 -16 61 -31 19 -86 27 -127 17z"/>
</g>
</svg>
