<?xml version="1.0" standalone="no"?>
<!DOCTYPE svg PUBLIC "-//W3C//DTD SVG 20010904//EN"
 "http://www.w3.org/TR/2001/REC-SVG-20010904/DTD/svg10.dtd">
<svg version="1.0" xmlns="http://www.w3.org/2000/svg"
 width="16.000000pt" height="16.000000pt" viewBox="0 0 16.000000 16.000000"
 preserveAspectRatio="xMidYMid meet">
<metadata>
Created by potrace 1.11, written by Peter Selinger 2001-2013
</metadata>
<g transform="translate(0.000000,16.000000) scale(0.000722,-0.000722)"
fill="#000000" stroke="none">
<path d="M0 11075 l0 -11075 11075 0 11075 0 0 11075 0 11075 -11075 0 -11075
0 0 -11075z m1990 7549 c63 -53 126 -105 140 -116 l25 -20 -134 -129 c-74 -71
-138 -129 -143 -129 -4 0 -8 39 -8 88 0 48 -3 158 -7 245 -3 92 -2 157 3 157
5 0 61 -43 124 -96z m18249 -51 c-1 -82 -4 -194 -8 -249 l-6 -102 -139 132
-139 132 139 116 c77 64 142 117 147 117 4 1 7 -65 6 -146z m-18564 -89 l155
-186 -116 -227 c-64 -124 -119 -230 -124 -234 -4 -4 -10 34 -14 85 -8 111 -53
621 -62 696 -3 28 -3 52 0 52 3 0 75 -84 161 -186z m18891 -130 c-14 -148 -30
-325 -36 -394 -6 -68 -13 -126 -15 -128 -5 -6 -236 459 -233 469 2 4 71 90
153 190 127 154 150 178 153 157 2 -14 -8 -146 -22 -294z m-17931 21 c110
-151 190 -271 183 -272 -7 -1 -98 -9 -203 -18 -104 -8 -200 -18 -212 -21 -29
-8 -29 -11 -3 301 11 132 20 251 20 263 0 13 4 22 9 20 5 -1 98 -124 206 -273z
m17045 267 c0 -4 9 -108 19 -232 11 -124 21 -252 22 -285 2 -58 2 -60 -22 -58
-119 9 -415 36 -418 39 -2 2 41 65 96 141 55 76 142 197 194 270 86 120 109
147 109 125z m-620 -332 c17 -151 37 -321 44 -378 7 -56 9 -101 6 -100 -13 5
-375 419 -375 428 0 14 289 344 292 334 1 -5 16 -133 33 -284z m-15830 120
c77 -89 140 -165 140 -169 0 -10 -372 -432 -377 -427 -2 2 12 140 31 307 19
167 38 337 42 377 4 39 10 72 15 72 5 0 72 -72 149 -160z m-1931 -247 c116
-166 211 -304 211 -307 0 -7 -412 282 -430 302 -12 14 -14 45 -12 171 2 85 7
150 11 145 5 -5 103 -145 220 -311z m19740 87 l1 -85 -217 -153 c-119 -83
-218 -150 -221 -148 -3 3 186 278 377 546 l46 65 6 -70 c4 -38 7 -108 8 -155z
m-1007 -110 l78 -174 -22 -22 c-24 -22 -510 -439 -541 -463 -19 -15 -16 -7 48
134 15 33 47 104 71 158 24 53 64 142 89 197 25 55 65 144 89 198 98 218 88
200 99 172 6 -14 46 -104 89 -200z m-17852 207 c0 -1 27 -63 61 -137 33 -74
78 -173 99 -220 20 -47 81 -181 134 -299 53 -118 95 -215 94 -216 -2 -2 -132
108 -289 243 l-287 246 35 75 c19 42 58 129 86 193 29 65 55 118 60 118 4 0 7
-1 7 -3z m-280 -329 c24 -51 99 -212 167 -357 68 -145 122 -265 121 -266 -2
-1 -120 48 -263 110 -176 76 -259 117 -257 126 6 32 177 479 183 479 3 0 25
-42 49 -92z m18444 -134 c47 -125 88 -236 91 -248 5 -19 -18 -31 -251 -130
-140 -59 -258 -106 -260 -103 -3 3 41 106 99 229 183 389 205 436 212 457 3
12 10 21 14 21 5 0 47 -102 95 -226z m-16300 -91 c108 -150 198 -278 201 -285
4 -13 -540 -386 -550 -377 -3 4 20 180 116 877 9 68 14 81 24 70 6 -7 100
-135 209 -285z m14267 80 c77 -558 100 -736 95 -740 -7 -7 -549 361 -547 372
2 15 415 584 420 580 2 -3 17 -98 32 -212z m-17224 194 c4 -7 148 -145 318
-308 171 -163 317 -304 325 -314 14 -16 13 -17 -5 -12 -11 3 -125 26 -254 51
-128 25 -235 47 -236 48 -1 2 -39 120 -85 262 -45 143 -84 266 -87 273 -7 17
13 17 24 0z m2312 -129 c103 -669 128 -834 124 -841 -6 -11 -150 123 -336 311
l-157 161 121 183 c67 101 143 216 168 255 25 40 49 73 52 73 3 0 16 -64 28
-142z m15512 -122 l163 -248 -244 -242 c-166 -164 -245 -236 -247 -225 -2 9
12 122 32 250 117 765 112 737 125 723 4 -5 81 -121 171 -258z m2130 247 c-5
-10 -45 -132 -90 -272 -44 -140 -82 -255 -84 -257 -5 -6 -500 -104 -504 -100
-2 2 348 339 607 584 66 62 88 76 71 45z m-18145 -243 c18 -96 51 -276 73
-400 23 -124 44 -234 47 -245 6 -18 4 -18 -9 -5 -27 28 -548 783 -543 788 8 7
306 40 355 38 l45 -1 32 -175z m16567 161 c93 -10 171 -21 174 -24 3 -4 -85
-136 -194 -294 -110 -158 -234 -336 -274 -395 -41 -58 -75 -103 -77 -98 -2 4
18 120 43 256 26 137 57 310 71 384 36 203 32 190 62 190 15 0 103 -9 195 -19z
m-17023 -552 c135 -123 260 -238 278 -255 l34 -30 -147 -54 c-92 -33 -150 -49
-156 -43 -10 10 -319 650 -319 661 0 3 15 -8 33 -24 17 -17 142 -132 277 -255z
m17377 -54 c-88 -184 -165 -335 -171 -335 -20 0 -280 98 -282 107 -2 8 595
561 608 562 3 1 -66 -150 -155 -334z m-18250 -44 l281 -91 -145 -230 c-80
-127 -149 -230 -153 -230 -4 0 -20 30 -35 68 -16 37 -77 179 -137 316 -105
242 -116 272 -100 263 4 -3 134 -46 289 -96z m19130 -233 c-75 -172 -139 -314
-144 -315 -8 -2 -288 435 -288 451 0 12 559 195 563 184 2 -4 -57 -148 -131
-320z m-16477 210 c0 -24 7 -176 15 -338 9 -162 19 -357 23 -432 4 -76 5 -138
1 -138 -5 0 -49 44 -368 373 l-144 149 34 34 c70 70 424 393 432 393 4 1 7
-18 7 -41z m13895 -161 c100 -91 193 -175 208 -187 15 -12 27 -27 27 -33 0 -6
-46 -58 -103 -116 -56 -59 -169 -175 -250 -260 -82 -84 -151 -151 -153 -148
-6 5 29 705 42 870 l7 78 21 -19 c11 -10 102 -93 201 -185z m-15843 1 c52 -73
97 -138 101 -144 5 -8 -23 -19 -86 -34 -50 -12 -100 -24 -110 -27 -18 -5 -18
2 -13 129 3 73 6 150 6 171 0 20 2 37 4 37 3 0 47 -60 98 -132z m17668 -39 c0
-158 -1 -170 -17 -165 -10 3 -55 14 -101 25 -46 10 -86 21 -89 24 -6 7 187
287 199 287 4 0 8 -77 8 -171z m-17894 -111 c-4 -90 -13 -289 -21 -443 -8
-154 -22 -428 -31 -610 -15 -306 -18 -346 -27 -334 -9 11 -455 666 -461 677
-5 8 94 172 266 442 150 236 275 430 277 430 2 0 1 -73 -3 -162z m18288 -271
c146 -229 266 -422 266 -428 0 -14 -458 -683 -471 -687 -5 -2 -9 29 -9 70 0
41 -4 155 -10 254 -5 98 -16 321 -25 494 -8 173 -20 398 -25 500 -12 228 -12
236 -1 225 5 -6 129 -198 275 -428z m-19037 134 c180 -145 201 -165 194 -184
-5 -12 -43 -140 -86 -285 -43 -144 -80 -261 -82 -259 -5 5 -253 888 -253 901
0 10 -19 25 227 -173z m19722 112 c-10 -37 -67 -240 -126 -450 -59 -211 -111
-383 -114 -383 -3 0 -43 126 -89 280 l-83 279 29 24 c106 89 390 316 396 317
4 0 -2 -30 -13 -67z m-17469 45 c0 -17 -542 -1429 -547 -1424 -9 9 -396 1396
-391 1401 5 6 198 14 543 24 402 12 395 12 395 -1z m15525 -3 c308 -8 415 -15
415 -29 1 -20 -384 -1386 -391 -1386 -3 0 -41 91 -84 203 -42 111 -103 270
-135 352 -32 83 -95 247 -140 365 -45 118 -106 277 -136 353 -30 76 -54 143
-54 149 0 7 49 8 153 4 83 -3 251 -8 372 -11z m-16657 -320 c83 -188 284 -642
441 -997 50 -113 91 -211 91 -215 0 -5 -98 -15 -217 -21 -120 -7 -309 -17
-421 -23 -111 -7 -205 -10 -207 -7 -4 4 16 138 90 598 14 85 47 297 75 470 62
390 61 383 65 379 2 -2 39 -85 83 -184z m17365 128 c3 -26 29 -190 57 -363
132 -821 162 -1021 156 -1027 -3 -3 -135 1 -293 10 -159 10 -346 20 -416 24
-70 3 -130 9 -132 13 -3 4 10 41 29 81 18 41 91 205 161 364 71 160 175 396
232 525 57 129 123 278 146 331 23 53 45 95 48 93 3 -2 9 -25 12 -51z m-15700
-353 l120 -116 -374 -499 c-350 -466 -548 -734 -629 -847 -34 -49 -47 -60 -36
-32 6 17 67 247 172 649 36 138 77 293 90 345 14 52 66 253 115 445 50 193 97
374 105 403 l15 53 151 -143 c83 -79 205 -195 271 -258z m14583 -455 c106
-412 176 -676 235 -899 39 -142 44 -183 19 -135 -19 34 -248 345 -645 874
-198 264 -363 485 -367 491 -4 6 103 116 264 269 l271 258 63 -244 c35 -134
107 -410 160 -614z m-14337 75 c13 -107 42 -355 66 -550 72 -596 89 -740 84
-744 -2 -2 -227 14 -499 35 -272 21 -541 42 -598 45 -56 4 -105 10 -107 14 -3
4 213 304 478 666 265 363 496 678 512 701 17 23 33 39 36 35 3 -4 16 -95 28
-202z m14004 -510 c291 -396 499 -688 493 -691 -6 -4 -56 -9 -111 -13 -55 -3
-323 -24 -595 -45 -272 -21 -496 -38 -498 -36 -3 3 14 155 63 550 32 256 114
939 116 954 0 3 7 -3 14 -14 8 -11 241 -328 518 -705z m-16672 198 c112 -123
221 -242 242 -264 l37 -42 -46 -98 c-25 -55 -60 -128 -76 -164 -17 -36 -65
-137 -107 -225 -42 -88 -96 -204 -121 -257 -25 -53 -48 -97 -51 -98 -3 0 -9
55 -13 123 -4 67 -13 221 -21 342 -18 260 -55 869 -55 890 0 8 2 15 3 15 2 0
96 -100 208 -222z m18994 185 c-4 -39 -5 -52 -30 -448 -8 -132 -17 -274 -20
-315 -3 -41 -12 -185 -20 -320 -9 -134 -18 -246 -20 -248 -2 -2 -15 20 -28 50
-14 29 -55 116 -92 193 -37 77 -78 164 -92 193 -13 30 -62 132 -108 228 l-84
175 242 264 c133 145 245 265 250 265 4 0 5 -17 2 -37z m-17780 -571 c-6 -4
-64 -32 -130 -62 -66 -29 -212 -98 -324 -152 -113 -54 -208 -95 -211 -91 -8 9
-70 222 -70 239 0 6 80 17 208 28 165 14 365 31 522 45 8 0 10 -2 5 -7z
m16690 -23 c143 -11 271 -22 285 -24 14 -2 44 -4 68 -4 34 -1 42 -5 42 -20 0
-18 -59 -232 -66 -240 -2 -2 -34 12 -71 32 -95 49 -570 267 -583 267 -5 0 -10
5 -10 10 0 6 15 8 38 5 20 -3 154 -14 297 -26z m-16542 -111 c67 -233 120
-429 116 -432 -5 -4 -190 15 -514 54 -291 35 -375 49 -375 60 0 13 144 105
380 242 118 69 242 141 275 161 33 19 65 36 71 36 6 1 27 -54 47 -121z m16321
0 c352 -203 506 -299 506 -318 0 -4 -10 -10 -22 -13 -57 -14 -858 -109 -866
-102 -1 1 13 56 31 121 19 65 54 190 78 276 24 87 48 158 53 158 5 0 104 -55
220 -122z m-17299 -193 c36 -104 120 -343 185 -530 65 -187 141 -405 169 -484
29 -79 50 -147 49 -151 -3 -6 -815 474 -832 490 -5 6 2 25 174 445 56 138 118
291 138 342 20 51 40 89 44 85 3 -4 36 -92 73 -197z m18275 -243 c144 -353
170 -426 159 -436 -8 -7 -160 -99 -339 -206 -179 -106 -361 -214 -404 -241
-44 -27 -81 -47 -83 -45 -2 1 35 113 83 247 47 134 136 390 199 569 183 524
197 563 205 549 4 -8 85 -205 180 -437z m-14870 340 c0 -7 -69 -211 -210 -622
-18 -52 -36 -99 -40 -103 -5 -6 -124 548 -133 622 -1 10 50 27 178 61 195 52
205 54 205 42z m11393 -38 c100 -26 185 -50 190 -54 7 -6 -105 -584 -122 -625
-6 -15 -14 0 -38 70 -17 50 -74 216 -127 369 -53 154 -96 281 -96 283 0 6 9 4
193 -43z m-11873 -340 c10 -117 26 -382 35 -584 3 -69 8 -146 11 -172 l5 -47
-378 -315 c-208 -173 -379 -313 -381 -312 -3 3 64 155 358 811 84 187 188 421
232 520 91 204 98 218 104 212 3 -2 9 -53 14 -113z m12266 -66 c24 -54 65
-144 90 -200 25 -57 61 -137 80 -178 135 -297 441 -986 438 -988 -1 -2 -171
137 -378 310 l-376 313 0 63 c0 144 47 838 58 857 3 5 15 -11 25 -35 11 -25
39 -89 63 -142z m-14815 82 c280 -18 639 -39 999 -60 195 -11 425 -24 510 -30
85 -5 241 -15 345 -21 105 -6 191 -12 193 -14 2 -2 -412 -284 -910 -620 -98
-66 -307 -207 -464 -313 -157 -107 -290 -190 -294 -185 -8 7 -66 138 -417 933
-74 167 -137 308 -139 312 -6 10 -9 10 177 -2z m4702 -172 c70 -81 127 -149
127 -152 0 -3 -145 -126 -322 -273 -178 -147 -391 -328 -475 -400 -147 -128
-151 -131 -119 -80 38 59 250 425 476 820 145 253 154 267 170 250 9 -10 74
-84 143 -165z m12734 170 c-3 -7 -89 -202 -191 -433 -103 -231 -226 -509 -274
-618 -61 -138 -91 -196 -100 -192 -10 4 -1628 1093 -1651 1112 -2 1 -2 5 0 7
2 3 241 19 529 36 289 17 676 39 860 50 184 12 418 25 520 31 102 5 194 11
205 13 54 9 107 6 102 -6z m-4511 -345 c109 -192 254 -442 321 -557 68 -115
123 -212 123 -215 0 -3 -21 15 -47 40 -68 65 -213 188 -563 478 -168 140 -311
259 -318 265 -10 10 16 45 128 174 78 89 145 162 149 162 5 0 98 -156 207
-347z m-10845 -4 c-16 -40 -55 -141 -86 -224 -32 -82 -79 -206 -105 -275 -26
-69 -126 -330 -221 -580 -95 -250 -176 -459 -180 -464 -4 -5 -110 56 -236 136
-718 456 -726 461 -710 472 9 6 210 137 448 291 238 154 586 380 773 502 188
122 342 220 343 219 1 -1 -11 -36 -26 -77z m13221 -15 c1187 -769 1428 -928
1421 -935 -14 -14 -934 -599 -942 -599 -6 0 -146 361 -426 1100 -51 135 -116
305 -144 379 -28 74 -51 136 -51 138 0 8 19 -3 142 -83z m-10752 -415 c-50
-134 -130 -347 -177 -474 -47 -126 -105 -282 -128 -345 -56 -151 -202 -543
-277 -745 -33 -88 -62 -168 -65 -177 -3 -10 -8 -18 -12 -18 -5 0 -630 496
-655 520 -11 11 -21 0 629 685 303 318 600 631 660 696 61 64 111 113 113 109
1 -3 -38 -116 -88 -251z m8444 -129 c149 -157 320 -337 381 -400 374 -390 655
-690 655 -698 0 -16 -651 -535 -660 -526 -4 5 -69 173 -143 374 -75 201 -195
525 -268 720 -72 195 -178 480 -235 634 -57 153 -104 281 -104 285 0 3 24 -19
52 -49 29 -30 174 -183 322 -340z m-13428 120 c143 -67 318 -148 389 -181
l130 -61 131 -292 c73 -160 130 -293 128 -295 -3 -3 -39 29 -82 70 -95 93
-221 208 -617 564 -362 325 -351 315 -343 315 3 0 122 -54 264 -120z m18369
91 c-17 -16 -174 -158 -350 -317 -176 -158 -400 -361 -497 -452 -98 -90 -178
-162 -178 -160 0 2 8 22 19 44 21 44 89 195 181 399 34 77 68 145 74 152 6 6
85 45 176 86 91 42 262 121 380 176 118 55 217 101 220 101 2 0 -9 -13 -25
-29z m-12026 -411 c162 -61 301 -114 308 -118 9 -5 -147 -133 -478 -390 -270
-211 -494 -381 -496 -378 -3 3 16 103 42 223 66 309 140 654 160 749 l17 82
77 -28 c42 -16 208 -79 370 -140z m5928 0 c18 -85 55 -261 83 -390 27 -129 63
-295 78 -367 16 -73 26 -133 23 -133 -13 0 -975 756 -974 765 1 11 721 285
742 282 10 -1 25 -50 48 -157z m-5198 68 c-10 -24 -110 -223 -222 -442 l-202
-400 -90 -39 c-154 -66 -281 -121 -545 -237 -140 -62 -284 -125 -320 -140 -36
-16 -127 -55 -203 -88 -75 -34 -135 -57 -132 -52 3 5 294 249 647 542 352 293
738 615 857 715 119 99 219 182 223 182 4 1 -2 -18 -13 -41z m4563 -448 c320
-267 710 -590 865 -719 155 -129 281 -236 279 -238 -2 -2 -216 90 -456 197
-61 27 -167 73 -435 190 -60 26 -168 74 -240 105 -71 32 -138 60 -148 64 -12
4 -102 172 -243 450 -123 243 -220 441 -215 439 5 -2 272 -221 593 -488z
m-8661 408 c0 -18 17 -230 37 -470 31 -356 35 -438 24 -438 -21 0 -621 263
-761 335 l-44 22 362 291 c200 161 367 292 372 292 5 0 9 -15 10 -32z m12562
-258 c196 -157 355 -289 354 -294 -3 -9 -198 -99 -527 -245 -209 -93 -268
-116 -276 -108 -6 6 -1 82 41 562 30 334 35 377 45 373 4 -2 167 -131 363
-288z m-8297 -782 c5 -260 8 -475 7 -477 -2 -4 -671 468 -678 479 -3 5 43 42
102 84 60 41 207 145 328 230 120 86 222 156 226 156 3 0 10 -213 15 -472z
m3998 243 c176 -125 321 -231 323 -237 2 -7 -601 -441 -664 -478 -13 -7 -14
30 -9 310 8 411 17 634 25 633 3 0 150 -103 325 -228z m4693 -483 c-4 -348 -7
-729 -7 -845 0 -117 -3 -213 -8 -213 -11 0 -1017 1229 -1017 1243 0 6 126 64
280 128 154 64 386 162 515 217 129 55 237 100 239 101 2 1 1 -284 -2 -631z
m-13539 548 c614 -257 810 -339 829 -350 21 -11 -1 -40 -490 -636 l-512 -625
-6 210 c-14 479 -21 1475 -9 1475 6 0 90 -33 188 -74z m-2121 -32 c98 -48 228
-110 290 -140 l112 -53 6 -43 c9 -68 84 -832 81 -835 -1 -2 -376 636 -659
1125 -10 17 -17 32 -14 32 3 0 86 -39 184 -86z m17441 -494 c-205 -351 -334
-563 -336 -551 -3 17 9 151 54 591 8 85 19 179 22 209 l7 53 290 138 c160 76
291 137 293 135 2 -2 -146 -260 -330 -575z m-16328 425 c591 -131 744 -166
749 -171 6 -5 25 12 -262 -243 -131 -117 -243 -211 -247 -209 -5 2 -84 86
-176 188 -91 102 -187 208 -213 235 -53 58 -207 229 -235 263 -11 12 -15 22
-10 22 4 0 182 -38 394 -85z m15758 76 c-5 -14 -629 -701 -636 -701 -4 0 -104
86 -222 191 -296 264 -292 260 -288 264 4 5 1108 252 1131 254 10 0 17 -3 15
-8z m-11268 -791 c-382 -380 -697 -687 -701 -682 -19 20 -279 477 -276 486 3
10 1645 884 1662 885 6 0 -303 -310 -685 -689z m5953 559 c83 -45 189 -101
235 -125 45 -24 121 -65 170 -90 48 -26 123 -66 167 -90 44 -23 130 -69 190
-101 517 -273 655 -347 653 -353 -11 -24 -284 -489 -288 -490 -3 0 -316 311
-695 691 -593 594 -683 687 -637 665 28 -15 121 -63 205 -107z m-4163 -389
c133 -250 259 -487 280 -526 l39 -71 -342 -280 c-188 -154 -368 -302 -400
-328 -32 -26 -59 -46 -62 -44 -2 3 0 34 5 69 14 97 136 1006 176 1310 44 334
45 343 54 333 5 -4 117 -213 250 -463z m3084 310 c10 -74 37 -281 61 -460 24
-179 67 -497 96 -708 28 -211 49 -385 46 -388 -3 -3 -146 111 -318 252 -173
142 -351 287 -396 323 -45 36 -82 70 -82 74 -1 5 70 142 157 305 87 163 214
402 282 530 74 139 126 228 130 220 4 -7 15 -74 24 -148z m-6939 -150 c138
-113 345 -284 460 -379 116 -94 210 -178 210 -185 0 -14 -773 -760 -907 -876
l-38 -32 0 847 c0 674 3 845 13 839 6 -5 125 -101 262 -214z m10794 -772 c0
-384 -2 -698 -7 -698 -16 0 -960 905 -952 912 3 3 185 153 405 333 220 181
432 355 470 386 l70 58 6 -147 c4 -81 7 -461 8 -844z m634 284 c279 -349 507
-638 507 -642 0 -6 -921 -239 -928 -235 -2 2 -63 660 -87 945 -3 36 -16 190
-30 343 -14 153 -25 281 -25 285 1 4 13 -8 28 -27 15 -19 255 -320 535 -669z
m-11817 266 c-19 -216 -47 -530 -62 -698 -38 -441 -39 -445 -49 -444 -43 5
-924 230 -923 236 2 4 241 305 533 669 320 400 531 657 533 647 2 -9 -13 -193
-32 -410z m3384 68 c184 -131 339 -242 343 -246 5 -4 -38 -28 -95 -53 -57 -25
-299 -132 -538 -238 -506 -223 -592 -261 -595 -257 -1 2 117 238 264 525 162
318 270 519 276 515 6 -4 161 -114 345 -246z m5147 -274 c144 -284 261 -518
259 -519 -2 -2 -63 23 -137 56 -144 63 -505 222 -684 301 -343 151 -396 176
-397 185 -1 11 684 505 692 498 2 -2 123 -237 267 -521z m5129 -379 c-3 -4
-198 -57 -426 -118 -91 -24 -267 -71 -391 -104 -125 -34 -229 -61 -233 -61 -3
0 -6 263 -6 585 l0 585 530 -442 c291 -243 528 -443 526 -445z m-14974 300
c-2 -318 -5 -579 -7 -581 -1 -2 -96 22 -211 53 -525 142 -665 179 -743 199
-47 12 -86 26 -87 31 -2 10 1031 875 1045 875 3 0 5 -260 3 -577z m-951 406
c178 -66 327 -124 331 -127 4 -4 -119 -119 -273 -256 -154 -136 -282 -246
-284 -245 -2 2 -17 105 -34 229 -18 124 -41 284 -51 357 -20 133 -23 163 -16
163 2 0 149 -54 327 -121z m16154 99 c-3 -13 -27 -180 -55 -372 -27 -191 -51
-350 -53 -353 -6 -5 -557 485 -557 495 0 7 635 249 658 251 8 1 10 -7 7 -21z
m-10115 -480 c0 -7 -13 -112 -30 -233 -61 -449 -97 -695 -102 -700 -3 -3 -104
31 -224 75 -121 45 -316 118 -434 161 -362 135 -380 141 -380 148 0 3 114 60
253 126 138 66 398 190 577 277 179 86 328 157 333 157 4 1 7 -5 7 -11z m4187
-197 c241 -115 505 -241 588 -281 l150 -72 -60 -24 c-33 -12 -159 -60 -280
-104 -121 -45 -329 -122 -463 -172 -134 -49 -245 -88 -248 -85 -3 2 -14 71
-24 153 -11 82 -40 292 -65 467 -50 352 -47 327 -40 327 2 0 201 -94 442 -209z
m-6456 -114 c80 -128 143 -236 139 -240 -8 -9 -1412 -498 -1422 -494 -8 3
1114 966 1127 966 6 0 76 -104 156 -232z m9009 -252 c308 -263 558 -480 556
-482 -3 -4 -287 93 -741 252 -224 79 -360 126 -547 191 -76 26 -138 51 -138
55 0 17 293 470 302 467 5 -2 261 -219 568 -483z m-5083 261 c-7 -17 -645
-1038 -657 -1050 -5 -5 -11 6 -14 25 -8 54 -86 878 -88 944 l-3 60 145 6 c80
4 244 10 365 14 121 4 222 9 224 11 11 10 33 3 28 -10z m828 -7 c193 -6 354
-15 359 -19 5 -5 0 -104 -12 -232 -50 -534 -77 -798 -82 -798 -9 0 -668 1058
-662 1064 3 3 14 4 26 1 12 -2 179 -9 371 -16z m-669 -1757 c-2 -2 -153 72
-335 163 -304 151 -332 167 -325 187 3 11 24 60 46 107 22 47 153 334 290 636
138 303 265 579 281 615 l31 65 8 -885 c4 -486 5 -886 4 -888z m414 1142 c157
-345 304 -668 326 -719 l41 -92 -161 -81 c-88 -44 -239 -119 -334 -167 l-173
-86 2 886 c1 487 5 885 8 885 3 0 134 -282 291 -626z m-1405 206 c-7 -344 -9
-380 -24 -376 -9 3 -34 8 -56 12 -22 3 -130 26 -240 49 -110 24 -227 48 -259
55 l-59 12 319 319 c175 175 320 316 322 314 2 -2 1 -175 -3 -385z m2415 67
c171 -170 309 -311 307 -314 -3 -2 -133 -31 -289 -64 -155 -32 -293 -61 -305
-64 -19 -4 -23 0 -27 27 -9 58 -14 729 -6 726 5 -2 148 -142 320 -311z m-5030
119 c0 -6 -251 -579 -338 -771 -123 -272 -131 -288 -150 -282 -9 3 -145 55
-302 116 -157 60 -415 160 -574 221 -159 60 -292 113 -295 116 -3 3 1 9 9 14
30 19 540 202 1224 441 219 76 401 141 404 144 6 6 22 7 22 1z m7495 -56 c224
-77 850 -297 1035 -363 364 -131 450 -165 450 -178 0 -4 -48 -26 -107 -49
-140 -55 -643 -246 -708 -270 -27 -10 -115 -44 -195 -75 -80 -31 -152 -59
-161 -62 -18 -5 -64 91 -294 612 -75 171 -150 339 -166 374 -34 74 -34 75 -11
66 9 -4 80 -28 157 -55z m-6600 -370 c165 -11 323 -23 350 -26 l50 -7 -45 -19
c-25 -11 -92 -39 -150 -63 -58 -23 -321 -131 -585 -240 -640 -263 -744 -305
-755 -305 -6 0 -6 9 0 24 5 14 53 170 106 348 53 178 100 330 104 338 8 14 41
13 317 -7 169 -12 443 -31 608 -43z m6568 -305 c58 -192 104 -352 101 -354 -3
-4 -117 41 -374 147 -73 31 -1000 411 -1130 464 l-25 11 25 7 c14 4 72 10 130
14 106 6 495 34 915 65 161 12 233 14 242 6 6 -5 59 -167 116 -360z m-6114
-201 c-45 -241 -82 -440 -83 -441 -1 -2 -79 13 -172 32 -93 19 -356 71 -584
116 -228 44 -417 83 -419 85 -3 3 205 106 524 259 50 24 252 122 450 218 198
97 361 174 363 173 1 -2 -34 -200 -79 -442z m4967 242 c230 -112 532 -259 669
-326 l250 -123 -55 -13 c-69 -16 -1066 -212 -1099 -216 -28 -3 -17 -48 -137
602 -24 135 -46 253 -48 263 -2 9 -3 17 -2 17 1 0 191 -92 422 -204z m-4516
164 c124 -16 331 -44 460 -61 129 -17 243 -34 253 -37 14 -6 -6 -24 -90 -83
-88 -61 -407 -287 -941 -667 -35 -24 -65 -42 -68 -39 -3 3 10 110 29 239 20
128 50 333 68 456 27 183 36 222 49 222 8 0 117 -13 240 -30z m3989 -37 c48
-299 126 -849 120 -851 -4 -2 -255 174 -559 389 -442 314 -549 394 -534 400
10 4 159 26 329 49 171 22 369 49 440 59 207 29 191 33 204 -46z m-3142 -60
c-39 -65 -457 -802 -492 -865 -26 -49 -51 -90 -56 -93 -12 -8 -549 53 -603 69
-9 2 1139 896 1151 896 2 0 2 -3 0 -7z m2611 -438 c314 -242 571 -443 571
-446 1 -8 -527 -78 -595 -79 -7 0 -45 60 -85 133 -40 72 -164 291 -275 485
-111 194 -199 352 -194 350 4 -2 265 -201 578 -443z m-2353 168 c-3 -21 -19
-175 -35 -343 -17 -168 -37 -366 -45 -440 -8 -74 -33 -317 -56 -540 -22 -223
-42 -406 -44 -408 -1 -1 -199 149 -439 333 l-436 336 298 312 c164 172 399
419 523 549 123 130 227 237 232 237 4 1 5 -16 2 -36z m2040 -508 c220 -230
428 -449 463 -486 l63 -68 -68 -53 c-197 -156 -793 -610 -800 -609 -4 0 -13
53 -20 118 -14 137 -90 877 -133 1298 -40 390 -43 365 33 284 34 -36 242 -254
462 -484z m-1624 -96 c162 -77 297 -144 301 -147 4 -4 -20 -43 -54 -87 -33
-44 -200 -266 -371 -493 -171 -226 -312 -410 -314 -408 -2 2 5 89 16 192 12
104 39 369 61 589 47 467 50 495 59 495 4 0 140 -63 302 -141z m994 119 c2
-13 12 -97 20 -188 9 -91 34 -334 55 -540 45 -431 55 -537 48 -530 -27 29
-738 982 -738 989 0 6 4 11 9 11 5 0 139 63 297 140 159 77 292 140 296 140 4
0 10 -10 13 -22z m-3136 -315 c0 -98 4 -343 7 -545 4 -203 5 -368 2 -368 -4 0
-129 58 -279 128 -175 82 -274 134 -273 143 1 8 117 190 258 404 251 380 275
415 282 415 2 0 3 -80 3 -177z m5002 140 c13 -21 132 -202 264 -403 133 -201
245 -371 249 -378 5 -9 -9 -20 -46 -36 -59 -26 -128 -58 -357 -165 -84 -40
-155 -70 -158 -68 -2 3 1 222 6 488 6 266 11 510 11 542 0 31 2 57 4 57 2 0
15 -17 27 -37z m-4414 -426 c-6 -16 -476 -637 -483 -637 -2 0 -2 17 1 38 2 20
23 249 46 507 22 259 43 477 46 485 3 10 68 -49 200 -183 107 -109 193 -203
190 -210z m4183 390 c0 -8 11 -133 24 -278 49 -528 67 -741 64 -744 -4 -5 -17
12 -286 368 l-203 268 193 199 c105 110 196 200 200 200 4 0 8 -6 8 -13z
m-2335 -1465 c-2 -3 -155 10 -340 28 -292 29 -335 36 -330 49 4 9 93 171 200
361 294 524 465 833 467 844 2 6 4 -279 5 -633 2 -354 1 -646 -2 -649z m105
1268 c0 -8 211 -390 493 -891 92 -163 167 -301 167 -308 0 -6 -9 -11 -21 -11
-11 0 -157 -14 -325 -31 -168 -17 -311 -28 -319 -25 -13 5 -15 94 -15 646 0
425 3 639 10 635 6 -3 10 -10 10 -15z m-1633 -662 l54 -43 -6 -60 c-4 -46 -47
-207 -60 -223 -3 -4 -210 -30 -214 -26 -2 2 -12 44 -22 93 -18 88 -18 92 1
176 10 48 20 88 22 89 6 5 133 34 152 35 10 0 43 -18 73 -41z m3308 24 l69
-17 20 -85 c18 -82 18 -88 1 -177 -9 -50 -19 -93 -21 -96 -7 -7 -205 20 -214
29 -12 14 -57 163 -65 219 l-7 49 54 48 c29 26 62 47 73 47 11 0 51 -8 90 -17z
m-4613 -184 c101 -61 208 -126 239 -144 30 -18 65 -41 76 -51 l21 -18 -8 -620
c-5 -341 -9 -667 -10 -725 0 -64 -4 -99 -9 -90 -5 8 -72 238 -149 510 -78 272
-188 662 -246 867 -108 377 -109 383 -102 383 3 0 87 -50 188 -112z m5953 100
c-5 -14 -201 -700 -385 -1353 -62 -220 -117 -404 -122 -409 -4 -6 -8 98 -8
230 0 133 -3 463 -7 735 l-6 494 259 157 c142 87 262 158 266 158 4 0 5 -6 3
-12z m-5187 -435 c153 -131 419 -357 590 -503 171 -146 308 -268 304 -272 -6
-6 -419 -199 -702 -328 -58 -26 -145 -67 -195 -90 -49 -23 -148 -69 -218 -101
l-129 -59 6 153 c11 269 35 936 41 1137 6 198 13 300 21 300 2 0 130 -107 282
-237z m4522 177 c0 -33 4 -171 10 -307 11 -285 27 -726 36 -1020 l7 -202 -519
240 c-285 132 -565 261 -621 286 -57 25 -103 50 -103 54 0 4 181 162 402 351
221 189 485 414 587 501 102 86 188 157 193 157 4 0 8 -27 8 -60z m-3100 44
c0 -3 -40 -83 -89 -177 -48 -95 -150 -295 -226 -444 -75 -150 -140 -273 -144
-273 -16 0 -653 649 -647 659 4 6 14 11 22 11 14 0 596 124 944 200 147 33
140 32 140 24z m1730 -69 c168 -36 386 -83 485 -105 99 -21 196 -41 215 -45
19 -4 43 -9 53 -12 14 -4 -56 -80 -305 -331 -177 -180 -327 -328 -333 -329 -5
-2 -113 200 -238 447 -197 389 -225 450 -205 445 13 -2 160 -34 328 -70z
m-1391 -335 c151 -11 281 -20 289 -20 8 0 12 -6 8 -15 -13 -34 -401 -564 -407
-557 -4 4 -49 113 -99 242 -50 129 -102 263 -116 297 -13 34 -24 66 -24 71 0
6 17 8 38 6 20 -2 160 -13 311 -24z m1053 9 c-8 -34 -236 -609 -241 -609 -9 1
-414 571 -409 575 2 2 136 13 298 25 162 11 304 22 315 24 29 5 40 0 37 -15z
m-1353 -331 c49 -145 178 -522 286 -838 269 -785 305 -893 301 -897 -1 -2 -32
38 -67 89 -64 92 -665 948 -846 1206 -51 72 -93 137 -93 142 0 6 71 141 157
300 110 202 160 285 166 275 4 -8 48 -133 96 -277z m1490 144 c41 -75 112
-206 158 -290 l83 -152 -272 -388 c-149 -213 -372 -531 -496 -707 -123 -176
-230 -327 -238 -335 -8 -8 33 125 92 295 58 171 143 420 189 555 73 215 322
944 377 1103 11 31 23 57 26 57 4 0 40 -62 81 -138z m-889 -819 c0 -467 -4
-841 -9 -833 -5 8 -52 155 -106 325 -53 171 -132 421 -176 557 -43 136 -79
253 -79 259 0 10 360 539 367 539 2 0 3 -381 3 -847z m298 573 l180 -258 -18
-57 c-10 -31 -56 -177 -103 -326 -47 -148 -120 -380 -162 -515 -42 -135 -81
-252 -86 -260 -5 -9 -9 351 -9 840 0 514 4 850 9 845 5 -6 90 -126 189 -269z
m-1472 -303 c-3 -16 -10 -73 -16 -128 -11 -96 -51 -439 -125 -1052 -19 -161
-35 -298 -35 -305 0 -24 -27 16 -290 432 -145 228 -292 458 -327 510 -49 74
-60 97 -50 106 6 6 170 99 362 205 450 248 468 259 478 259 5 0 6 -12 3 -27z
m2888 -208 c229 -126 416 -233 416 -236 0 -4 -87 -141 -192 -306 -106 -164
-256 -398 -333 -521 -77 -122 -142 -222 -145 -222 -3 0 -13 66 -22 148 -21
182 -99 837 -133 1112 -27 225 -30 263 -15 258 5 -1 196 -106 424 -233z
m-2398 -350 c219 -302 462 -638 540 -745 78 -107 138 -196 134 -198 -5 -2
-145 11 -312 28 -167 17 -448 46 -626 64 -177 18 -325 36 -328 39 -3 3 10 126
30 274 20 147 58 441 86 653 60 460 59 455 69 444 5 -5 187 -256 407 -559z
m1933 225 c23 -179 62 -474 87 -657 24 -182 44 -343 44 -357 0 -31 -2 -31
-165 -46 -66 -6 -289 -28 -495 -50 -584 -60 -601 -62 -607 -57 -2 3 152 221
343 484 191 263 436 600 543 749 108 149 199 269 202 265 3 -3 25 -152 48
-331z m-2735 -1268 c8 -13 -119 -247 -285 -527 -78 -133 -114 -184 -122 -175
-2 3 -18 79 -36 170 -18 91 -50 248 -71 350 -101 475 -231 1089 -240 1127 -6
23 -10 47 -10 53 0 9 736 -953 764 -998z m3817 886 c-32 -146 -204 -957 -261
-1233 -28 -137 -57 -277 -64 -310 l-12 -60 -46 70 c-51 79 -155 258 -282 484
l-86 153 108 142 c546 720 657 865 660 856 2 -5 -6 -52 -17 -102z m-2801 -859
c245 -7 449 -15 453 -19 7 -6 -4 -1379 -18 -2205 -2 -165 -5 -379 -5 -475 l-1
-175 -130 325 c-71 179 -234 586 -361 905 -127 319 -325 816 -440 1105 -116
289 -213 534 -216 544 -5 19 0 19 134 13 76 -3 339 -12 584 -18z m1755 -16
c-9 -21 -64 -157 -122 -303 -58 -146 -283 -710 -500 -1255 -217 -545 -422
-1060 -456 -1145 l-62 -155 -6 525 c-3 289 -10 933 -14 1431 l-8 905 489 13
c269 7 491 15 493 17 2 2 49 4 103 4 l98 0 -15 -37z m-2507 -258 c33 -77 86
-198 117 -270 31 -71 69 -159 85 -195 24 -59 345 -797 425 -980 237 -542 475
-1093 473 -1096 -2 -1 -46 50 -99 114 -364 444 -974 1189 -981 1198 -8 11 -20
141 -33 359 -3 55 -10 163 -15 240 -15 217 -50 768 -50 785 1 13 2 13 9 0 5
-8 36 -78 69 -155z m2613 -47 c-6 -112 -14 -232 -17 -268 -2 -36 -11 -168 -19
-295 -8 -126 -20 -315 -27 -419 l-12 -188 -435 -532 c-586 -714 -613 -746
-638 -775 l-23 -26 21 50 c12 28 43 100 69 160 26 61 152 351 280 645 128 294
360 829 516 1188 156 360 284 659 284 665 0 6 3 8 6 4 4 -3 1 -97 -5 -209z
m-2802 -143 c6 -104 13 -221 16 -260 12 -178 27 -556 23 -561 -3 -2 -17 13
-31 33 -14 21 -88 125 -165 232 l-141 194 140 279 c77 154 142 279 144 277 2
-2 8 -89 14 -194z m3085 -83 l139 -278 -158 -220 c-86 -120 -164 -226 -172
-234 -16 -16 -16 -19 7 380 5 85 14 262 21 393 7 130 15 237 18 237 4 0 69
-125 145 -278z m-2564 -1479 c140 -168 355 -426 478 -572 122 -146 218 -267
212 -269 -5 -2 -31 3 -57 12 -44 14 -202 56 -653 172 -96 25 -179 49 -183 54
-5 4 -19 191 -32 416 -13 225 -26 428 -28 452 -3 23 -2 42 2 41 3 0 121 -138
261 -306z m2146 225 c-7 -92 -44 -695 -48 -770 -1 -27 -4 -52 -7 -56 -3 -5
-80 -28 -170 -51 -91 -24 -282 -74 -425 -113 -325 -87 -309 -83 -305 -70 5 15
949 1142 956 1142 3 0 3 -37 -1 -82z"/>
</g>
</svg>
