<?xml version="1.0" encoding="utf-8"?>
<!-- Generator: Adobe Illustrator 16.0.0, SVG Export Plug-In . SVG Version: 6.00 Build 0)  -->
<!DOCTYPE svg PUBLIC "-//W3C//DTD SVG 1.1//EN" "http://www.w3.org/Graphics/SVG/1.1/DTD/svg11.dtd">
<svg version="1.1" id="Ebene_1" xmlns="http://www.w3.org/2000/svg" xmlns:xlink="http://www.w3.org/1999/xlink" x="0px" y="0px"
	 width="3000px" height="2750px" viewBox="0 0 3000 2750" enable-background="new 0 0 3000 2750" xml:space="preserve">
<g>
	<path fill-rule="evenodd" clip-rule="evenodd" d="M1485.086,2406.346c-50.179-125.937-100.358-251.872-150.827-378.534
		c11.616,0,22.342-0.049,33.066,0.029c2.59,0.02,5.175,0.623,7.766,0.682c21.062,0.506,42.129,0.8,63.189,1.457
		c15.413,0.476,30.812,1.511,46.228,2.056c4.077,0.143,5.053,1.947,5.016,5.617c-0.471,47.378-0.795,94.756-1.288,142.134
		c-0.213,20.456-0.893,40.918-1.086,61.379c-0.508,54.006-0.868,108.011-1.285,162.021c-0.007,1.045,0,2.09,0,3.135
		C1485.603,2406.331,1485.343,2406.336,1485.086,2406.346z"/>
	<path fill-rule="evenodd" clip-rule="evenodd" d="M1512.275,2404.889c0-5.823,0.049-11.646-0.01-17.464
		c-0.422-43.547-0.889-87.089-1.295-130.631c-0.432-46.559-0.771-93.117-1.236-139.677c-0.261-26.078-0.604-52.151-1.129-78.229
		c-0.094-4.7,1.011-7.178,6.201-6.991c3.375,0.118,6.764-0.647,10.159-0.74c33.672-0.923,67.349-1.762,101.025-2.669
		c10.415-0.284,20.829-0.73,31.243-1.04c1.717-0.054,3.439,0.206,6.216,0.393c-50.336,126.328-100.344,251.828-150.351,377.327
		C1512.824,2405.075,1512.55,2404.982,1512.275,2404.889z"/>
	<path fill-rule="evenodd" clip-rule="evenodd" d="M323.544,860.95c28.595,1.511,55.774,2.879,82.946,4.405
		c26.998,1.516,53.986,3.2,80.979,4.802c27.199,1.614,54.396,3.219,81.595,4.817c13.797,0.813,27.599,1.585,41.393,2.44
		c1.523,0.096,3.02,0.611,5.688,1.181c-73.326,49.619-145.742,98.621-219.108,148.271
		C372.453,971.362,348.148,916.496,323.544,860.95z"/>
	<path fill-rule="evenodd" clip-rule="evenodd" d="M2674.016,861.288c-24.338,54.968-48.596,109.75-73.314,165.578
		c-72.966-49.369-145.461-98.425-219.068-148.227c2.953-0.589,4.611-1.136,6.299-1.227c24.213-1.295,48.438-2.453,72.646-3.802
		c27.599-1.535,55.192-3.223,82.787-4.854c27-1.597,54-3.132,80.996-4.827c15.781-0.988,31.547-2.244,47.323-3.34
		C2672.22,860.553,2672.779,860.903,2674.016,861.288z"/>
	<path fill-rule="evenodd" clip-rule="evenodd" d="M1171.097,1875.753c2.514-70.331,4.979-139.333,7.491-209.552
		c52.536,44.798,104.231,88.875,156.719,133.628C1280.442,1825.196,1226.451,1850.16,1171.097,1875.753z"/>
	<path fill-rule="evenodd" clip-rule="evenodd" d="M1662.41,1799.834c52.372-44.655,103.655-88.384,155.924-132.956
		c0.628,2.846,1.373,4.764,1.428,6.701c0.525,18.45,0.839,36.905,1.402,55.35c0.746,24.444,1.619,48.89,2.531,73.334
		c0.908,24.165,1.929,48.335,2.939,73.49C1771.746,1850.382,1717.735,1825.412,1662.41,1799.834z"/>
	<path fill-rule="evenodd" clip-rule="evenodd" d="M2374.309,900.783c68.061,44.194,136.115,88.384,205.117,133.189
		c-42.031,26.826-83.224,53.115-125.279,79.958c-27.127-71.209-53.99-141.732-80.854-212.25
		C2373.631,901.382,2373.97,901.082,2374.309,900.783z"/>
	<path fill-rule="evenodd" clip-rule="evenodd" d="M543.584,1113.94c-42.1-26.873-83.133-53.062-125.271-79.956
		c69.051-44.852,137.182-89.104,206.878-134.374C597.659,971.929,570.8,1042.461,543.584,1113.94z"/>
	<path fill-rule="evenodd" clip-rule="evenodd" d="M460.18,848.249c45.42-61.942,90.162-122.958,135.99-185.458
		c8.045,66.562,15.914,131.681,23.908,197.809C566.704,856.476,514.104,852.414,460.18,848.249z"/>
	<path fill-rule="evenodd" clip-rule="evenodd" d="M2537.502,848.158c-17.479,1.401-33.416,2.669-49.354,3.957
		c-18.955,1.53-37.905,3.11-56.86,4.599c-11.975,0.939-23.959,1.734-35.934,2.637c-4.189,0.314-8.369,0.738-12.549,1.163
		c-3.67,0.375-5.244-1.168-4.773-4.871c2.664-21.035,5.372-42.07,7.938-63.118c2.635-21.653,5.078-43.331,7.678-64.989
		c2.502-20.826,5.106-41.644,8.957-63.284C2447.313,725.197,2492.018,786.145,2537.502,848.158z"/>
	<path fill-rule="evenodd" clip-rule="evenodd" d="M1489.783,2018.104c-7.574-0.584-13.495-0.923-19.387-1.516
		c-27.079-2.753-54.148-5.573-81.222-8.364c-19.51-2.012-39.014-4.027-58.524-6.034c-8.376-0.863-8.644-0.883-7.594-9.085
		c3.763-29.375,7.741-58.725,11.597-88.085c2.995-22.82,5.916-45.646,8.898-68.467c0.66-5.043,1.433-10.066,2.36-16.552
		C1394.129,1886.394,1441.387,1951.471,1489.783,2018.104z"/>
	<path fill-rule="evenodd" clip-rule="evenodd" d="M1509.121,2016.514c47.377-65.259,94.751-130.513,142.762-196.64
		c2.213,16.409,4.316,31.905,6.387,47.412c3.131,23.395,6.245,46.794,9.341,70.199c2.521,19.038,4.92,38.097,7.569,57.12
		c0.696,5.028-1.555,6.888-6.068,7.329c-13.146,1.28-26.284,2.59-39.422,3.944c-18.111,1.863-36.213,3.812-54.328,5.666
		c-17.317,1.771-34.645,3.468-51.965,5.194c-4.509,0.446-9.018,0.883-13.525,1.325
		C1509.621,2017.544,1509.371,2017.029,1509.121,2016.514z"/>
	<path fill-rule="evenodd" clip-rule="evenodd" d="M584.269,1316.228c-0.9-74.712-1.783-147.85-2.681-222.393
		c46.421,19.448,91.622,38.384,137.714,57.692C674.298,1206.421,629.802,1260.691,584.269,1316.228z"/>
	<path fill-rule="evenodd" clip-rule="evenodd" d="M2278.434,1151.542c45.941-19.26,90.803-38.067,137.356-57.582
		c-0.677,74.278-1.345,147.329-2.007,220.376c-0.495,0.159-0.986,0.319-1.477,0.479
		C2367.902,1260.662,2323.496,1206.504,2278.434,1151.542z"/>
	<path fill-rule="evenodd" clip-rule="evenodd" d="M2219.768,1129.394c-29.168,23.343-57.646,46.127-87.177,69.755
		c-32.872-88.463-65.382-175.954-97.892-263.442c0.236-0.162,0.472-0.323,0.707-0.483
		C2096.691,999.769,2157.973,1064.311,2219.768,1129.394z"/>
	<path fill-rule="evenodd" clip-rule="evenodd" d="M962.653,936.702c-32.359,87.094-64.719,174.188-97.54,262.52
		c-29.247-23.466-57.883-46.438-87.106-69.885c61.528-64.796,122.549-129.059,183.567-193.319
		C961.935,936.246,962.295,936.474,962.653,936.702z"/>
	<path fill-rule="evenodd" clip-rule="evenodd" d="M1258.583,1564.7c46.147-48.354,91.626-96.008,138.313-144.926
		c-8.025,78.352-15.877,154.977-23.871,233.005C1334.558,1623.175,1297.121,1594.364,1258.583,1564.7z"/>
	<path fill-rule="evenodd" clip-rule="evenodd" d="M1624.706,1652.794c-7.957-77.665-15.771-153.951-23.586-230.243
		c0.534-0.255,1.074-0.5,1.608-0.756c45.225,47.374,90.449,94.742,136.41,142.881
		C1701.066,1593.996,1663.392,1623.003,1624.706,1652.794z"/>
	<path fill-rule="evenodd" clip-rule="evenodd" d="M762.653,1141.888c40.856,33.604,81.712,67.209,123.503,101.58
		c-41.884,40.02-83.26,79.549-125.237,119.657c0-74.465,0-147.538,0-220.614C761.498,1142.305,762.074,1142.099,762.653,1141.888z"
		/>
	<path fill-rule="evenodd" clip-rule="evenodd" d="M2237.305,1140.47c0,74.717,0,148.075,0,222.402
		c-6.582-6.021-12.852-11.545-18.891-17.314c-34.129-32.617-68.173-65.322-102.336-97.9c-3.135-2.987-3.826-4.916-0.039-8.014
		c39.176-32.058,78.239-64.251,117.342-96.397C2234.146,1142.619,2235,1142.094,2237.305,1140.47z"/>
	<path fill-rule="evenodd" clip-rule="evenodd" d="M1991.561,1305.288c71.945,25.465,143.891,50.93,215.836,76.395
		c-0.035,0.79-0.064,1.584-0.099,2.374c-51.626,19.701-103.253,39.401-156.11,59.573c-20.354-45.749-40.688-91.465-61.025-137.18
		C1990.628,1306.063,1991.094,1305.676,1991.561,1305.288z"/>
	<path fill-rule="evenodd" clip-rule="evenodd" d="M946.539,1443.64c-52.725-20.127-104.185-39.774-155.639-59.416
		c-0.052-0.657-0.101-1.31-0.152-1.967c71.32-27.077,143.621-51.408,215.559-76.748c0.375,0.399,0.75,0.8,1.126,1.199
		C987.196,1352.207,966.963,1397.709,946.539,1443.64z"/>
	<path fill-rule="evenodd" clip-rule="evenodd" d="M607.391,1319.004c47.108-58.934,93.41-116.854,140.682-175.99
		c-6.098,69.382-12.067,137.313-18.131,206.339C688.753,1339.151,648.684,1329.229,607.391,1319.004z"/>
	<path fill-rule="evenodd" clip-rule="evenodd" d="M2390.301,1318.94c-15.836,3.922-30.371,7.515-44.9,11.125
		c-23.916,5.938-47.864,11.762-71.715,17.931c-5.098,1.319-6.314-0.29-6.711-5.019c-2.228-26.721-4.754-53.415-7.05-80.131
		c-1.767-20.537-3.243-41.099-5.028-61.631c-1.389-15.948-3.09-31.864-4.557-47.803c-0.25-2.695-0.035-5.438-0.035-9.563
		C2297.33,1202.663,2343.462,1260.362,2390.301,1318.94z"/>
	<path fill-rule="evenodd" clip-rule="evenodd" d="M1470.629,2397.653c-12.948-15.747-25.906-31.484-38.835-47.241
		c-32.49-39.598-64.992-79.181-97.364-118.872c-1.925-2.359-3.699-5.543-3.924-8.467c-1.17-15.183-1.7-30.41-2.673-45.612
		c-1.462-22.786-3.174-45.553-4.653-68.34c-0.961-14.8-1.68-29.614-2.546-44.42c-0.304-5.185-0.721-10.37-0.485-15.815
		c50.41,116.101,100.819,232.201,151.229,348.296C1471.127,2397.339,1470.876,2397.496,1470.629,2397.653z"/>
	<path fill-rule="evenodd" clip-rule="evenodd" d="M1526.879,2395.951c50.008-115.179,100.02-230.361,150.027-345.545
		c0.275,0.029,0.555,0.055,0.829,0.079c-0.501,10.753-0.878,21.516-1.54,32.254c-0.521,8.389-1.575,16.743-2.075,25.131
		c-1.358,22.797-2.443,45.607-3.851,68.404c-0.986,15.981-2.242,31.954-3.602,47.912c-0.186,2.228-1.172,4.734-2.585,6.461
		c-44.871,54.854-89.841,109.63-134.806,164.405c-0.48,0.589-1.123,1.05-1.691,1.57
		C1527.35,2396.397,1527.114,2396.177,1526.879,2395.951z"/>
	<path fill-rule="evenodd" clip-rule="evenodd" d="M423.601,752.482c-7.314-25.872-14.319-50.529-21.256-75.207
		c-9.6-34.153-19.149-68.315-28.715-102.478c-1.889-6.755-1.58-7.106,5.436-7.275c35.286-0.854,70.572-1.712,105.857-2.629
		c3.321-0.089,6.632-0.628,11.16-1.08C471.838,626.924,447.989,688.999,423.601,752.482z"/>
	<path fill-rule="evenodd" clip-rule="evenodd" d="M2573.893,751.894c-24.166-62.904-47.928-124.749-72.162-187.832
		c3.493,0.316,5.906,0.67,8.33,0.729c6.824,0.162,13.657,0.164,20.48,0.292c21.467,0.404,42.934,0.772,64.396,1.29
		c8.211,0.199,16.408,0.9,24.615,1.116c5.053,0.133,6.094,2.075,4.729,6.87c-10.808,37.986-21.428,76.021-32.087,114.048
		c-5.524,19.686-11.009,39.382-16.532,59.063C2575.354,748.578,2574.81,749.625,2573.893,751.894z"/>
	<path fill-rule="evenodd" clip-rule="evenodd" d="M447.555,833.435c21.602-83.062,42.857-164.793,64.322-247.33
		c11.634,11.072,22.646,21.546,33.647,32.024c10.755,10.242,21.435,20.568,32.296,30.701c3.093,2.887,4.052,5.001,1.091,8.958
		c-43.184,57.672-86.188,115.479-129.24,173.25C449.324,831.507,448.899,831.919,447.555,833.435z"/>
	<path fill-rule="evenodd" clip-rule="evenodd" d="M2485.939,586.482c21.531,82.792,42.758,164.396,64.357,247.462
		c-8.979-12.178-17.053-23.252-25.25-34.23c-35.314-47.29-70.631-94.585-106.088-141.771c-2.668-3.555-3.012-5.494,0.539-8.815
		c20.673-19.333,41.064-38.97,61.57-58.489C2482.35,589.421,2483.757,588.337,2485.939,586.482z"/>
	<path fill-rule="evenodd" clip-rule="evenodd" d="M1719.825,1128.763c10.175,75.853,20.132,150.138,30.326,226.16
		c-6.176-4.952-11.249-8.938-16.232-13.024c-28.075-23.034-56.125-46.103-84.214-69.127c-2.57-2.112-4.719-3.646-2.492-7.79
		C1671.289,1220.112,1695.15,1175.128,1719.825,1128.763z"/>
	<path fill-rule="evenodd" clip-rule="evenodd" d="M1278.693,1130.398c5.749,10.731,11.525,21.445,17.246,32.188
		c17.913,33.647,35.789,67.314,53.733,100.944c1.717,3.224,2.831,5.695-0.885,8.718c-33.608,27.349-67.069,54.878-101.229,82.895
		c10.078-75.22,20.056-149.689,30.032-224.158C1277.958,1130.791,1278.325,1130.595,1278.693,1130.398z"/>
	<path fill-rule="evenodd" clip-rule="evenodd" d="M2568.31,1275.558c-46.677,12.497-92.083,24.653-138.161,36.988
		c0-51.095,0-101.225,0-152.263C2476.094,1198.621,2521.643,1236.624,2568.31,1275.558z"/>
	<path fill-rule="evenodd" clip-rule="evenodd" d="M567.445,1312.501c-46.331-12.396-91.514-24.485-138.033-36.932
		c46.571-38.866,92.218-76.956,138.033-115.19C567.445,1211.154,567.445,1261.346,567.445,1312.501z"/>
	<path fill-rule="evenodd" clip-rule="evenodd" d="M334.592,586.416c27.118,61.387,53.772,121.715,80.667,182.594
		c-2.07,0.49-3.341,0.998-4.631,1.066c-24.616,1.303-49.237,2.482-73.849,3.849c-8.99,0.5-17.962,1.354-26.932,2.168
		c-4.113,0.376-6.063-0.807-5.318-5.364c7.128-43.672,14.214-87.346,21.227-131.035c2.664-16.605,5.097-33.245,7.663-49.865
		C333.537,589.058,333.925,588.327,334.592,586.416z"/>
	<path fill-rule="evenodd" clip-rule="evenodd" d="M2582.227,769.529c27.339-61.879,54.079-122.399,81.246-183.891
		c10.17,63.792,20.191,126.647,30.355,190.42C2656.586,773.881,2620.172,771.749,2582.227,769.529z"/>
	<path fill-rule="evenodd" clip-rule="evenodd" d="M1222.271,1877.882c36.873-20.456,73.608-40.834,111.867-62.056
		c-7.967,67.147-15.747,132.711-23.733,199.996C1280.621,1969.204,1251.659,1923.877,1222.271,1877.882z"/>
	<path fill-rule="evenodd" clip-rule="evenodd" d="M1687.326,2015.856c-7.928-66.794-15.723-132.48-23.738-200.021
		c38.381,21.286,75.1,41.653,111.848,62.031C1746.085,1923.838,1717.044,1969.317,1687.326,2015.856z"/>
	<path fill-rule="evenodd" clip-rule="evenodd" d="M1489.955,1275.775c0,77.092,0,153.634,0,230.744
		c-1.754-0.618-3.255-0.981-4.602-1.648c-25.676-12.764-51.3-25.632-77.032-38.283c-3.919-1.928-4.695-3.654-2.801-7.795
		c27.717-60.564,55.256-121.212,82.855-181.827C1488.505,1276.684,1488.924,1276.536,1489.955,1275.775z"/>
	<path fill-rule="evenodd" clip-rule="evenodd" d="M1594.434,1463.885c-29.051,14.462-57.346,28.556-86.265,42.959
		c0-77.106,0-153.236,0-229.371c0.417-0.083,0.834-0.169,1.246-0.255C1537.617,1339.142,1565.819,1401.064,1594.434,1463.885z"/>
	<path fill-rule="evenodd" clip-rule="evenodd" d="M1843.686,1126.254c68.419,36.257,139.814,74.094,211.996,112.343
		c-12.637,21.702-24.887,42.747-37.205,63.902C1959.174,1242.702,1900.395,1183.436,1843.686,1126.254z"/>
	<path fill-rule="evenodd" clip-rule="evenodd" d="M979.681,1303.232c-12.789-21.947-25.041-42.978-37.655-64.626
		c72.652-38.502,144.597-76.63,212.799-112.774C1098.567,1182.815,1039.495,1242.648,979.681,1303.232z"/>
	<path fill-rule="evenodd" clip-rule="evenodd" d="M1199.254,1370.362c-7.206,39.096-14.15,76.78-21.295,115.549
		c-51.04-10.037-101.742-20-154.133-30.302C1082.855,1426.927,1140.427,1398.95,1199.254,1370.362z"/>
	<path fill-rule="evenodd" clip-rule="evenodd" d="M1971.811,1456.007c-50.396,9.914-100.785,19.833-152.02,29.919
		c-7.123-38.577-14.118-76.468-21.334-115.558c58.509,28.425,115.963,56.338,173.417,84.25
		C1971.85,1455.08,1971.83,1455.546,1971.811,1456.007z"/>
	<path fill-rule="evenodd" clip-rule="evenodd" d="M1488.232,1992.368c-43.282-61.717-85.524-122.07-127.986-182.262
		c-3.174-4.498-3.181-7.761-0.618-12.387c12.649-22.806,24.979-45.788,38.168-70.086
		C1428.009,1816.081,1457.828,1903.371,1488.232,1992.368z"/>
	<path fill-rule="evenodd" clip-rule="evenodd" d="M1599.884,1727.737c6.294,11.459,11.822,21.427,17.258,31.439
		c7.177,13.221,14.152,26.549,21.501,39.677c2.124,3.802,2.145,6.5-0.48,10.218c-36.891,52.304-73.599,104.734-110.346,157.136
		c-5.617,8.006-11.22,16.017-17.479,23.689C1539.986,1903.087,1569.641,1816.277,1599.884,1727.737z"/>
	<path fill-rule="evenodd" clip-rule="evenodd" d="M1904.01,1305.984c-46.533,17.277-91.356,33.92-136.953,50.852
		c-5.77-41.692-11.436-82.598-17.258-124.678C1801.277,1256.801,1851.811,1280.993,1904.01,1305.984z"/>
	<path fill-rule="evenodd" clip-rule="evenodd" d="M1094.54,1305.582c50.891-24.356,101.124-48.398,152.841-73.152
		c-0.625,6.459-0.939,11.507-1.629,16.503c-4.704,34.079-9.531,68.144-14.194,102.229c-0.532,3.896-1.685,5.423-5.796,3.888
		c-43.196-16.134-86.429-32.181-129.642-48.266C1095.781,1306.659,1095.519,1306.338,1094.54,1305.582z"/>
	<path fill-rule="evenodd" clip-rule="evenodd" d="M1917.766,1293.495c-54.609-24.121-107.609-47.525-161.473-71.317
		c30.861-22.036,60.996-43.557,91.793-65.549C1871.295,1202.209,1894.115,1247.041,1917.766,1293.495z"/>
	<path fill-rule="evenodd" clip-rule="evenodd" d="M1080.022,1293.46c23.605-46.431,46.373-91.214,69.566-136.831
		c30.685,21.903,60.66,43.304,91.818,65.549C1187.503,1245.986,1134.633,1269.34,1080.022,1293.46z"/>
	<path fill-rule="evenodd" clip-rule="evenodd" d="M1820.601,1365.15c8.358-0.645,16.714-1.354,25.077-1.918
		c19.77-1.329,39.554-2.507,59.318-3.902c26.143-1.847,52.279-3.721,78.401-5.864c5.892-0.483,8.442,1.516,10.091,7.224
		c7.947,27.522,16.35,54.915,24.582,82.352c0.338,1.134,0.594,2.291,1.191,4.626c-66.701-27.373-132.578-54.412-198.45-81.452
		C1820.742,1365.859,1820.67,1365.504,1820.601,1365.15z"/>
	<path fill-rule="evenodd" clip-rule="evenodd" d="M978.224,1447.775c3.819-12.705,7.258-24.16,10.709-35.614
		c5.261-17.474,10.675-34.898,15.703-52.434c1.32-4.608,3.262-6.679,8.322-6.262c20.749,1.707,41.523,3.156,62.292,4.628
		c13.586,0.964,27.184,1.808,40.775,2.695c19.184,1.254,38.369,2.487,57.55,3.772c0.972,0.064,1.913,0.55,4.258,1.261
		C1110.947,1393.284,1045.163,1420.289,978.224,1447.775z"/>
	<path fill-rule="evenodd" clip-rule="evenodd" d="M1804.378,1903.155c-15.649,74.109-31.121,147.398-46.854,221.919
		c-4.076-6.49-7.854-12.067-11.194-17.896c-13.073-22.801-25.984-45.695-39.023-68.517c-1.713-2.997-2.492-5.444-0.016-8.692
		c31.789-41.634,63.439-83.37,95.139-125.067C1802.764,1904.461,1803.26,1904.146,1804.378,1903.155z"/>
	<path fill-rule="evenodd" clip-rule="evenodd" d="M1240.172,2125.03c-15.747-74.629-31.236-148.041-47.044-222.949
		c3.954,5.137,7.079,9.159,10.157,13.216c28.639,37.754,57.196,75.565,86.004,113.187c3.083,4.027,3.142,6.917,0.687,11.141
		c-14.636,25.156-29.002,50.474-43.51,75.703C1244.776,2118.271,1242.774,2121.037,1240.172,2125.03z"/>
	<path fill-rule="evenodd" clip-rule="evenodd" d="M1345.522,1387.839c-49.601,35.192-97.65,69.286-146.547,103.983
		c6.103-40.937,12.043-80.78,18.064-121.153C1259.804,1376.385,1301.737,1381.991,1345.522,1387.839z"/>
	<path fill-rule="evenodd" clip-rule="evenodd" d="M1780.713,1370.679c5.985,40.231,11.832,79.54,17.68,118.853
		c-0.441,0.358-0.883,0.722-1.324,1.08c-47.938-34.006-95.875-68.007-144.887-102.772
		C1695.65,1382.03,1737.785,1376.409,1780.713,1370.679z"/>
	<path fill-rule="evenodd" clip-rule="evenodd" d="M2649.654,979.772c20.941-59.857,41.54-118.729,62.134-177.602
		c0.471,0.01,0.937,0.024,1.407,0.035c3.777,9.202,7.584,18.396,11.342,27.61c10.675,26.184,21.183,52.438,32.122,78.512
		c2.202,5.251,1.05,7.435-3.669,10.206c-33.393,19.605-66.589,39.549-99.849,59.377
		C2652.332,978.395,2651.479,978.802,2649.654,979.772z"/>
	<path fill-rule="evenodd" clip-rule="evenodd" d="M285.234,800.243c21.131,60.373,41.722,119.206,62.779,179.373
		c-2.7-1.403-4.39-2.174-5.977-3.12c-32.588-19.429-65.126-38.94-97.791-58.244c-4.231-2.499-5.293-4.628-3.274-9.502
		C255.705,873.189,270.093,837.484,285.234,800.243z"/>
	<path fill-rule="evenodd" clip-rule="evenodd" d="M1592.991,1668.213c48.752,10.463,96.228,20.652,145.539,31.233
		c-28.923,29.193-56.886,57.415-85.813,86.608C1632.673,1746.506,1613.09,1707.864,1592.991,1668.213z"/>
	<path fill-rule="evenodd" clip-rule="evenodd" d="M1345.652,1784.818c-28.911-28.148-57.483-55.968-87.43-85.127
		c49.74-10.694,97.474-20.956,146.532-31.503C1384.614,1707.928,1364.951,1746.736,1345.652,1784.818z"/>
	<path fill-rule="evenodd" clip-rule="evenodd" d="M1009.642,1182.751c73.79-61.366,147.582-122.732,222.348-184.916
		c-0.771,2.159-1.055,3.326-1.582,4.371c-17.616,34.942-35.215,69.895-52.985,104.757c-1.172,2.303-3.351,4.711-5.656,5.729
		c-53.794,23.721-107.67,47.255-161.533,70.821C1010.037,1183.262,1009.84,1183.006,1009.642,1182.751z"/>
	<path fill-rule="evenodd" clip-rule="evenodd" d="M1986.959,1183.283c-51.259-22.423-102.443-45.023-153.859-67.086
		c-7.98-3.427-12.822-8.35-16.566-15.953c-15.746-32.038-31.984-63.831-48.035-95.718c-0.878-1.736-1.658-3.522-1.785-5.862
		c73.677,61.266,147.354,122.537,221.031,183.803C1987.483,1182.741,1987.219,1183.011,1986.959,1183.283z"/>
	<path fill-rule="evenodd" clip-rule="evenodd" d="M1176.1,1025.866c-43.306,33.716-85.514,66.578-129.284,100.652
		c9.993-46.922,19.61-92.088,29.441-138.259C1109.532,1000.791,1142.217,1013.102,1176.1,1025.866z"/>
	<path fill-rule="evenodd" clip-rule="evenodd" d="M1821.631,1025.871c33.682-12.693,66.265-24.97,99.818-37.616
		c9.865,46.284,19.559,91.751,29.482,138.291C1907.542,1092.761,1865.006,1059.641,1821.631,1025.871z"/>
	<path fill-rule="evenodd" clip-rule="evenodd" d="M1594.051,1702.247c-29.669,3.008-58.269,5.907-87.938,8.909
		c0-56.228,0-111.69,0-166.128C1534.768,1596.253,1564.053,1648.62,1594.051,1702.247z"/>
	<path fill-rule="evenodd" clip-rule="evenodd" d="M1403.675,1702.237c30.074-53.77,59.473-106.333,88.521-158.269
		c0,55.021,0,110.533,0,167.231C1462.407,1708.184,1433.55,1705.265,1403.675,1702.237z"/>
	<path fill-rule="evenodd" clip-rule="evenodd" d="M2033.885,1305.636c13.28-21.04,25.888-41.006,39.078-61.905
		c49.268,42.215,98.082,84.04,146.893,125.864c-0.093,0.211-0.181,0.425-0.273,0.636
		C2158.021,1348.817,2096.461,1327.404,2033.885,1305.636z"/>
	<path fill-rule="evenodd" clip-rule="evenodd" d="M963.865,1305.639c-62.473,21.734-123.932,43.112-185.392,64.493
		c-0.137-0.228-0.279-0.458-0.417-0.687c48.683-41.725,97.369-83.451,146.663-125.698
		C937.763,1264.37,950.47,1284.464,963.865,1305.639z"/>
	<path fill-rule="evenodd" clip-rule="evenodd" d="M1600.473,1651.19c-31.71-42.119-63.43-84.244-95.698-127.094
		c26.667-12.799,52.603-25.249,80-38.396c5.729,55.762,11.352,110.483,16.974,165.205
		C1601.326,1650.999,1600.898,1651.092,1600.473,1651.19z"/>
	<path fill-rule="evenodd" clip-rule="evenodd" d="M1412.9,1485.676c27.175,13.049,53.098,25.494,80.037,38.426
		c-32.551,43.237-64.464,85.627-97.15,129.041C1401.521,1597.032,1407.141,1542.036,1412.9,1485.676z"/>
	<path fill-rule="evenodd" clip-rule="evenodd" d="M1339.775,2261.783c40.922,48.903,81.845,97.803,123.547,147.644
		c-2.104,0-3.029,0.187-3.851-0.029c-35.848-9.434-71.661-18.995-107.555-28.252c-4.599-1.187-5.914-3.228-6.154-7.8
		c-1.4-26.598-3.118-53.177-4.815-79.76c-0.672-10.537-1.575-21.064-2.372-31.597
		C1338.976,2261.921,1339.375,2261.852,1339.775,2261.783z"/>
	<path fill-rule="evenodd" clip-rule="evenodd" d="M1534.791,2408.96c41.223-49.262,82.355-98.415,124.023-148.207
		c-1.433,26.181-2.781,51.484-4.219,76.787c-0.701,12.392-1.402,24.793-2.521,37.15c-0.182,2.045-2.148,5.199-3.871,5.655
		c-37.351,9.954-74.78,19.599-112.205,29.287C1535.861,2409.667,1535.66,2409.451,1534.791,2408.96z"/>
	<path fill-rule="evenodd" clip-rule="evenodd" d="M1528.449,1272.611c34.456,1.428,67.005,2.779,100.48,4.165
		c-4.307,44.901-8.58,89.429-13.02,135.659C1586.574,1365.538,1558.015,1319.877,1528.449,1272.611z"/>
	<path fill-rule="evenodd" clip-rule="evenodd" d="M1469.172,1272.803c-29.195,46.672-57.591,92.063-85.987,137.455
		c-0.454,0.005-0.908,0.01-1.361,0.02c-0.699-6.142-1.469-12.279-2.083-18.436c-1.962-19.721-3.871-39.453-5.793-59.181
		c-1.668-17.141-3.321-34.28-5.006-51.416c-0.319-3.245,0.824-4.785,4.317-4.873c10.221-0.258,20.434-0.738,30.652-1.165
		c19.029-0.79,38.058-1.609,57.086-2.392C1463.18,1272.725,1465.368,1272.803,1469.172,1272.803z"/>
	<path fill-rule="evenodd" clip-rule="evenodd" d="M2712.254,750.271c-3.248-67.236-6.475-134.163-9.752-202.101
		c11.361,17.783,22.252,34.803,33.122,51.837c11.872,18.617,23.679,37.275,35.644,55.833c1.953,3.024,2.561,5.419,0.305,8.688
		c-19.382,28.087-38.617,56.279-57.916,84.432C2713.357,749.397,2712.867,749.706,2712.254,750.271z"/>
	<path fill-rule="evenodd" clip-rule="evenodd" d="M295.102,550.479c-3.188,66.181-6.377,132.364-9.565,198.543
		c-0.395,0.115-0.79,0.229-1.188,0.346c-9.252-13.495-18.504-26.987-27.756-40.48c-9.988-14.569-19.96-29.145-29.973-43.699
		c-1.756-2.551-3.169-4.685-0.996-8.069c22.88-35.614,45.59-71.34,68.347-107.035C294.349,550.216,294.724,550.348,295.102,550.479z
		"/>
	<path fill-rule="evenodd" clip-rule="evenodd" d="M1155.067,1869.018c-21.614-76.075-43.23-152.151-65.291-229.792
		c3.046,1.619,4.751,2.423,6.357,3.395c18.725,11.308,37.38,22.737,56.188,33.902c4.086,2.424,5.811,5.181,5.725,10.091
		c-0.604,35.311-1.023,70.626-1.283,105.941c-0.187,25.475-0.037,50.944-0.037,76.424
		C1156.176,1868.988,1155.622,1869.003,1155.067,1869.018z"/>
	<path fill-rule="evenodd" clip-rule="evenodd" d="M1841.287,1866.938c0-40.122,0.113-80.245-0.049-120.363
		c-0.078-20.25-0.564-40.5-1.089-60.741c-0.112-4.355,1.364-6.937,5.132-9.178c19.646-11.715,39.137-23.689,58.689-35.556
		c0.829-0.506,1.746-0.868,3.993-1.963c-21.8,76.733-43.267,152.299-64.733,227.87
		C1842.582,1866.981,1841.936,1866.957,1841.287,1866.938z"/>
	<path fill-rule="evenodd" clip-rule="evenodd" d="M587.212,1079.185c32.262-25.911,63.432-50.944,95.912-77.035
		c3.65,41.825,7.162,82.127,10.88,124.771C657.764,1110.723,623.035,1095.199,587.212,1079.185z"/>
	<path fill-rule="evenodd" clip-rule="evenodd" d="M2314.559,1002.118c32.322,25.965,63.635,51.118,95.938,77.066
		c-35.62,15.919-70.253,31.396-104.886,46.873c-0.551-0.486-1.095-0.969-1.639-1.452
		C2307.455,1084.276,2310.938,1043.953,2314.559,1002.118z"/>
	<path fill-rule="evenodd" clip-rule="evenodd" d="M593.489,1051.174c30.238-67.56,59.899-133.837,89.563-200.113
		c0.373,0.073,0.743,0.146,1.116,0.216c1.202,16.909,2.5,33.807,3.581,50.719c1.278,19.978,2.276,39.973,3.61,59.946
		c0.344,5.17-0.772,8.859-5.104,12.428c-30.057,24.746-59.841,49.824-89.721,74.786
		C595.979,1049.623,595.321,1049.967,593.489,1051.174z"/>
	<path fill-rule="evenodd" clip-rule="evenodd" d="M2404.59,1051.959c-32.322-26.972-63.473-52.888-94.451-79.01
		c-1.825-1.54-3.292-4.761-3.193-7.128c0.854-20.795,2.051-41.577,3.242-62.357c0.8-13.988,1.731-27.972,2.668-41.952
		c0.221-3.333,0.692-6.654,1.236-11.731C2344.502,917.723,2374.201,984.07,2404.59,1051.959z"/>
	<path fill-rule="evenodd" clip-rule="evenodd" d="M2576.953,1106.509c-28.565,31.597-55.997,61.942-83.954,92.862
		c-22.212-19.755-44.009-39.139-66.804-59.411C2476.684,1128.756,2526.019,1117.812,2576.953,1106.509z"/>
	<path fill-rule="evenodd" clip-rule="evenodd" d="M571.507,1139.96c-22.862,20.349-44.503,39.615-66.777,59.44
		c-27.834-30.799-55.315-61.209-83.922-92.864C471.531,1117.786,520.727,1128.696,571.507,1139.96z"/>
	<path fill-rule="evenodd" clip-rule="evenodd" d="M1831.902,1143.671c-29.963,21.15-59.038,41.673-88.942,62.781
		c0.814-41.761,1.604-82.288,2.413-123.98C1774.493,1103.065,1802.749,1123.048,1831.902,1143.671z"/>
	<path fill-rule="evenodd" clip-rule="evenodd" d="M1165.835,1143.674c29.087-20.584,57.049-40.378,86.471-61.197
		c0.832,41.658,1.638,82.065,2.475,123.996C1224.592,1185.157,1195.706,1164.763,1165.835,1143.674z"/>
	<path fill-rule="evenodd" clip-rule="evenodd" d="M1506.604,1964.422c0-73.898,0-146.688,0-220.59
		c15.811,22.757,31.082,44.577,46.055,66.604c1.147,1.697,0.779,5.033,0.078,7.279c-13.427,43.047-27.01,86.044-40.564,129.052
		C1510.426,1952.305,1508.68,1957.838,1506.604,1964.422z"/>
	<path fill-rule="evenodd" clip-rule="evenodd" d="M1786.895,1504.817c-12.02,1.614-22.232,3.036-32.461,4.352
		c-12.102,1.555-24.229,2.879-36.311,4.566c-8.84,1.231-9.86,0.819-14.29-7.005c-20.167-35.604-40.378-71.189-60.574-106.779
		c-1.668-2.938-3.325-5.887-4.321-9.518C1687.797,1428.207,1736.661,1465.979,1786.895,1504.817z"/>
	<path fill-rule="evenodd" clip-rule="evenodd" d="M1210.852,1504.793c50.132-38.754,99.115-76.625,148.097-114.496
		c0.219,0.191,0.435,0.383,0.65,0.573c-9.819,17.204-19.689,34.379-29.443,51.617c-12.657,22.369-25.382,44.699-37.69,67.25
		c-2.428,4.455-5.651,4.616-9.465,4.185c-14.719-1.673-29.426-3.458-44.126-5.303
		C1230.013,1507.511,1221.173,1506.211,1210.852,1504.793z"/>
	<path fill-rule="evenodd" clip-rule="evenodd" d="M2780.873,703.123c-3.802,59.659-7.529,118.189-11.322,177.66
		c-8.869-18.686-17.42-36.674-25.955-54.675c-7.912-16.677-15.732-33.4-23.777-50.016c-1.613-3.34-1.57-5.749,1.05-8.584
		c19.235-20.773,38.342-41.663,57.499-62.507C2778.764,704.569,2779.313,704.28,2780.873,703.123z"/>
	<path fill-rule="evenodd" clip-rule="evenodd" d="M228.033,878.938c-3.723-58.641-7.447-117.282-11.217-176.699
		c20.682,22.552,40.927,44.506,60.905,66.704c1.172,1.303,0.977,4.918,0.081,6.831c-14.273,30.542-28.764,60.981-43.206,91.445
		c-1.869,3.943-3.733,7.886-5.597,11.827C228.675,879.013,228.354,878.976,228.033,878.938z"/>
	<path fill-rule="evenodd" clip-rule="evenodd" d="M1490.501,1745.098c0,72.656,0,144.308,0,217.229
		c-5.384-16.964-10.439-32.833-15.46-48.713c-9.976-31.553-19.853-63.14-29.988-94.644c-1.44-4.483-0.883-7.79,1.837-11.626
		c13.238-18.681,26.169-37.567,39.228-56.37C1487.335,1749.224,1488.669,1747.551,1490.501,1745.098z"/>
	<path fill-rule="evenodd" clip-rule="evenodd" d="M1165.161,1509.046c0.903,47.972,1.771,94.001,2.667,141.497
		c-25.087-11.69-48.936-22.802-73.366-34.183C1117.955,1580.702,1141.079,1545.598,1165.161,1509.046z"/>
	<path fill-rule="evenodd" clip-rule="evenodd" d="M1833.586,1510.646c23.021,34.918,46.043,69.841,69.659,105.656
		c-24.175,11.298-47.81,22.35-73.01,34.128c0.662-47.432,1.31-93.485,1.957-139.539
		C1832.658,1510.813,1833.119,1510.729,1833.586,1510.646z"/>
	<path fill-rule="evenodd" clip-rule="evenodd" d="M871.218,1003.202c27.285-47.388,54.192-94.124,81.614-141.747
		c12.462,14.354,24.374,28.075,36.885,42.478C950.247,936.996,911.081,969.808,871.218,1003.202z"/>
	<path fill-rule="evenodd" clip-rule="evenodd" d="M2008.014,903.975c12.189-14.063,24.105-27.808,36.851-42.515
		c27.172,47.172,53.927,93.631,81.585,141.646C2086.268,969.474,2047.391,936.933,2008.014,903.975z"/>
	<path fill-rule="evenodd" clip-rule="evenodd" d="M2672.465,843.189c-37.945,4.456-75.895,8.911-115.512,13.563
		c7.055-25.207,13.545-48.41,20.461-73.125c32.5,19.193,64.111,37.861,95.718,56.532
		C2672.911,841.171,2672.686,842.179,2672.465,843.189z"/>
	<path fill-rule="evenodd" clip-rule="evenodd" d="M324.969,839.891c31.484-18.554,62.968-37.106,95.328-56.174
		c6.921,24.65,13.443,47.873,20.503,73.007c-39.301-4.592-77.236-9.023-115.173-13.456
		C325.409,842.142,325.188,841.016,324.969,839.891z"/>
	<path fill-rule="evenodd" clip-rule="evenodd" d="M386.61,1244.851c-28.308-48.474-56.613-96.946-85.75-146.844
		c10.169,4.798,19.046,8.943,27.886,13.165c13.755,6.565,27.268,13.706,41.32,19.551c6.544,2.725,7.125,7.496,7.665,12.776
		c3.363,32.843,6.579,65.7,9.828,98.556c0.079,0.785,0.01,1.585,0.01,2.379C387.25,1244.574,386.929,1244.711,386.61,1244.851z"/>
	<path fill-rule="evenodd" clip-rule="evenodd" d="M516.618,548.342c5.75-42.127,11.315-82.914,17.054-124.992
		c18.622,25.728,36.633,50.618,55.19,76.255C564.831,515.817,541.203,531.759,516.618,548.342z"/>
	<path fill-rule="evenodd" clip-rule="evenodd" d="M2408.854,499.644c18.332-25.345,36.237-50.101,55.193-76.306
		c5.754,42.212,11.268,82.654,17.031,124.96C2456.291,531.602,2432.891,515.832,2408.854,499.644z"/>
	<path fill-rule="evenodd" clip-rule="evenodd" d="M2695.924,1099.602c-28.492,48.798-56.984,97.597-85.937,147.18
		c3.503-36.289,6.843-71.666,10.488-107.013c0.26-2.561,2.119-6.105,4.243-7.152c23.36-11.519,46.927-22.632,70.435-33.858
		C2695.408,1099.042,2695.668,1099.322,2695.924,1099.602z"/>
	<path fill-rule="evenodd" clip-rule="evenodd" d="M1640.752,1279.413c26.289,27.258,52.573,54.519,78.951,81.867
		c-24.916,5.239-51.15,10.753-78.279,16.458c-0.471-3.37-1.197-6.23-1.221-9.1c-0.162-20.055-0.049-40.11-0.3-60.162
		c-0.118-9.346-0.849-18.681-1.3-28.021C1639.32,1280.107,1640.036,1279.759,1640.752,1279.413z"/>
	<path fill-rule="evenodd" clip-rule="evenodd" d="M1357.045,1280.779c0,31.963,0,64.097,0,97.126
		c-27.479-5.776-53.62-11.269-79.242-16.654C1304.43,1334.211,1330.93,1307.299,1357.045,1280.779z"/>
	<path fill-rule="evenodd" clip-rule="evenodd" d="M485.487,1199.209c-24.631,21.879-48.33,42.925-73.125,64.95
		c-4.717-33.166-9.205-64.709-13.856-97.412C427.69,1177.637,456.034,1188.216,485.487,1199.209z"/>
	<path fill-rule="evenodd" clip-rule="evenodd" d="M2512.229,1199.207c29.086-10.863,57.175-21.356,86.932-32.468
		c-4.664,32.943-9.139,64.587-13.789,97.462C2560.705,1242.283,2536.934,1221.159,2512.229,1199.207z"/>
	<path fill-rule="evenodd" clip-rule="evenodd" d="M2406.916,645.921c2.197-42.004,4.316-82.436,6.5-124.157
		c20.255,18.606,39.695,36.47,59.975,55.104C2451.414,599.698,2429.697,622.254,2406.916,645.921z"/>
	<path fill-rule="evenodd" clip-rule="evenodd" d="M584.369,523.117c2.085,40.157,4.165,80.167,6.267,120.633
		c-9.159-8.761-17.814-16.654-26.029-24.983c-12.389-12.557-24.442-25.44-36.706-38.119c-2.217-2.293-3.515-4.081-0.446-6.86
		c18.42-16.694,36.723-33.513,55.085-50.271C582.775,523.304,583.246,523.351,584.369,523.117z"/>
	<path fill-rule="evenodd" clip-rule="evenodd" d="M1803.422,1516.076c4.041,45.102,7.951,88.688,12.014,133.961
		c-2.1-2.497-3.219-3.703-4.209-5.014c-18.445-24.326-36.797-48.727-55.39-72.936c-2.718-3.537-3.065-5.509,0.383-8.889
		c14.074-13.766,27.78-27.903,41.634-41.89C1799.242,1519.912,1800.723,1518.607,1803.422,1516.076z"/>
	<path fill-rule="evenodd" clip-rule="evenodd" d="M1182.212,1650.709c4.106-45.621,8.084-89.791,12.08-134.172
		c8.269,7.981,16.385,15.614,24.268,23.482c7.952,7.938,15.781,16.007,23.377,24.283c1.177,1.28,1.867,4.753,1.016,5.896
		C1223.071,1596.856,1202.946,1623.336,1182.212,1650.709z"/>
	<path fill-rule="evenodd" clip-rule="evenodd" d="M2505.616,552.684c6.612-43.125,13.049-85.107,19.696-128.448
		c7.785,11.759,14.834,22.384,21.859,33.029c6.401,9.713,12.729,19.48,19.189,29.154c1.728,2.59,2.537,4.586-0.201,7.265
		c-19.077,18.661-38.003,37.469-56.998,56.213C2508.363,550.682,2507.396,551.295,2505.616,552.684z"/>
	<path fill-rule="evenodd" clip-rule="evenodd" d="M472.559,425.126c6.532,42.653,12.86,84.001,19.191,125.345
		c-0.479,0.245-0.959,0.49-1.438,0.738c-1.45-1.189-3.004-2.269-4.329-3.584c-17.797-17.649-35.563-35.329-53.333-53.009
		c-2.144-2.13-4.263-3.866-1.791-7.545c13.188-19.638,26.122-39.446,39.161-59.182C470.437,427.262,471.045,426.762,472.559,425.126
		z"/>
	<path fill-rule="evenodd" clip-rule="evenodd" d="M1491.004,1725.396c-17.915,24.999-35.227,49.159-53.439,74.57
		c-10.682-27.383-20.927-53.652-31.602-81.021C1434.668,1721.124,1462.189,1723.214,1491.004,1725.396z"/>
	<path fill-rule="evenodd" clip-rule="evenodd" d="M1560.188,1800.006c-18.18-25.372-35.423-49.429-53.426-74.55
		c28.79-2.223,56.178-4.332,84.979-6.554C1581.188,1746.025,1570.945,1772.354,1560.188,1800.006z"/>
	<path fill-rule="evenodd" clip-rule="evenodd" d="M257.027,953.641c23.127,10.699,45.482,21.025,67.822,31.379
		c8.729,4.045,17.557,7.915,26.078,12.364c2.774,1.452,5.615,4.072,6.907,6.858c10.446,22.536,20.532,45.239,31.224,68.992
		C344.709,1033.063,301.199,993.65,257.027,953.641z"/>
	<path fill-rule="evenodd" clip-rule="evenodd" d="M2738.641,955.498c-42.771,38.749-85.548,77.495-128.324,116.245
		c-0.25-0.143-0.496-0.285-0.746-0.427c2.045-4.648,4.052-9.312,6.142-13.938c7.918-17.557,15.757-35.153,23.9-52.607
		c1.251-2.686,3.474-5.681,6.024-6.89c29.556-13.983,59.264-27.65,88.933-41.398c1.217-0.563,2.463-1.076,3.694-1.611
		C2738.391,955.081,2738.519,955.289,2738.641,955.498z"/>
	<path fill-rule="evenodd" clip-rule="evenodd" d="M2574.51,540.041c5.995-32.283,12.014-64.562,17.969-96.853
		c1.639-8.896,1.561-9.073,10.371-8.303c12.559,1.099,25.102,2.431,37.646,3.74c1.329,0.14,2.604,0.802,4.631,1.459
		c-23.487,33.797-46.687,67.18-69.885,100.56C2574.996,540.443,2574.75,540.242,2574.51,540.041z"/>
	<path fill-rule="evenodd" clip-rule="evenodd" d="M423.503,542.102c-24.089-34.652-47.265-67.993-71.303-102.57
		c5.35-0.611,9.39-1.064,13.429-1.536c11.506-1.339,22.998-2.82,34.533-3.836c1.295-0.112,3.809,2.229,4.099,3.748
		C410.717,472.074,416.939,506.289,423.503,542.102z"/>
	<path fill-rule="evenodd" clip-rule="evenodd" d="M267.255,535.46c-12.757,20.107-24.982,39.374-37.881,59.705
		c-12.112-27.977-23.829-55.03-36.316-83.87C218.457,519.565,242.288,527.326,267.255,535.46z"/>
	<path fill-rule="evenodd" clip-rule="evenodd" d="M2730.469,535.484c25.043-8.176,48.967-15.982,74.172-24.214
		c-12.24,28.319-24.047,55.632-36.277,83.917C2755.546,574.994,2743.355,555.783,2730.469,535.484z"/>
	<path fill-rule="evenodd" clip-rule="evenodd" d="M1301.055,2067.021c2.416,44.519,4.766,87.83,7.162,131.995
		c-9.848-13.628-19.318-26.73-28.776-39.839c-2.698-3.743-4.955-7.907-8.139-11.17c-6.026-6.181-5.401-11.744-1.455-19.098
		C1280.56,2108.95,1290.319,2088.483,1301.055,2067.021z"/>
	<path fill-rule="evenodd" clip-rule="evenodd" d="M1689.548,2197.073c2.354-42.629,4.71-85.254,7.063-127.878
		c0.344-0.06,0.688-0.118,1.031-0.182c5.445,10.875,10.885,21.751,16.325,32.627c5.475,10.939,11.116,21.805,16.292,32.887
		c0.99,2.124,1.201,5.838-0.016,7.574c-12.95,18.567-26.26,36.885-39.475,55.271
		C1690.362,2197.27,1689.955,2197.172,1689.548,2197.073z"/>
	<path fill-rule="evenodd" clip-rule="evenodd" d="M312.436,387.938c17.099,37.933,33.733,74.835,50.93,112.98
		c-20.458-17.552-39.899-34.23-59.34-50.915c-3.654-3.137-7.586-6.023-10.814-9.556c-1.372-1.501-2.375-4.842-1.646-6.52
		C298.111,418.866,305.08,403.987,312.436,387.938z"/>
	<path fill-rule="evenodd" clip-rule="evenodd" d="M2635.354,498.722c16.542-36.693,33.079-73.393,49.93-110.772
		c7.402,16.137,14.599,31.636,21.506,47.265c0.525,1.188-0.564,3.886-1.741,4.908c-22.875,19.821-45.872,39.497-68.845,59.203
		C2635.918,499.124,2635.639,498.923,2635.354,498.722z"/>
	<path fill-rule="evenodd" clip-rule="evenodd" d="M2684.856,512.374c14.717-31.356,28.712-61.183,43.326-92.315
		c3.331,8.65,6.195,16.028,9.017,23.427c4.43,11.606,8.678,23.284,13.318,34.805c1.574,3.907,0.667,5.801-3.051,7.37
		C2727.177,494.229,2706.941,502.934,2684.856,512.374z"/>
	<path fill-rule="evenodd" clip-rule="evenodd" d="M269.465,419.869c14.604,31.129,28.683,61.139,43.407,92.52
		c-23.137-9.912-44.808-19.19-67.447-28.889C253.335,462.563,261.153,441.873,269.465,419.869z"/>
	<path fill-rule="evenodd" clip-rule="evenodd" d="M2830.9,565.236c-10.641,37.884-21.281,75.767-32.289,114.973
		c-7.133-24.16-13.926-46.977-20.495-69.86c-0.417-1.46,0.388-4.102,1.556-5.063c16.693-13.733,33.549-27.271,50.365-40.854
		C2830.326,564.699,2830.611,564.967,2830.9,565.236z"/>
	<path fill-rule="evenodd" clip-rule="evenodd" d="M198.55,678.22c-10.538-37.525-21.075-75.054-31.862-113.479
		c1.643,0.78,2.708,1.06,3.493,1.692c15.458,12.465,30.827,25.04,46.365,37.407c3.107,2.475,3.917,4.673,2.695,8.646
		c-6.703,21.81-13.054,43.726-19.524,65.607C199.33,678.134,198.94,678.178,198.55,678.22z"/>
	<path fill-rule="evenodd" clip-rule="evenodd" d="M2248.221,812.5c16.051,4.128,30.998,7.861,45.838,11.972
		c1.363,0.376,3.193,3.346,2.918,4.741c-5.043,25.635-10.38,51.215-15.977,78.384C2269.854,875.265,2259.233,844.45,2248.221,812.5z
		"/>
	<path fill-rule="evenodd" clip-rule="evenodd" d="M749.481,812.485c-11.089,32.218-21.712,63.078-32.752,95.156
		c-3.368-16.282-6.51-31.387-9.608-46.5c-2.09-10.189-4.037-20.407-6.215-30.577c-0.807-3.763-0.255-5.651,4.111-6.671
		C719.425,820.523,733.698,816.584,749.481,812.485z"/>
	<path fill-rule="evenodd" clip-rule="evenodd" d="M2599.445,421.022c16.988-23.36,33.568-46.162,51.337-70.592
		c2.134,26.252,4.116,50.709,6.122,75.372C2637.149,424.159,2618.715,422.626,2599.445,421.022z"/>
	<path fill-rule="evenodd" clip-rule="evenodd" d="M398.232,421.013c-19.434,1.608-37.538,3.107-57.238,4.741
		c1.92-24.788,3.819-49.299,5.84-75.406C364.433,374.542,381.102,397.458,398.232,421.013z"/>
	<path fill-rule="evenodd" clip-rule="evenodd" d="M2831.357,426.875c-5.814,18.277-12.396,36.359-17.137,54.913
		c-2.717,10.645-8.049,14.727-18.537,16.163c-16.213,2.225-32.195,6.107-49.021,8.362c27.941-26.67,55.885-53.336,83.826-80.003
		C2830.777,426.499,2831.066,426.686,2831.357,426.875z"/>
	<path fill-rule="evenodd" clip-rule="evenodd" d="M167.579,426.634c28.278,26.986,55.946,53.388,84.717,80.845
		c-12.228-2.306-23.096-4.295-33.937-6.419c-8.83-1.729-17.675-3.444-26.407-5.58c-1.913-0.469-4.336-2.395-4.928-4.175
		c-6.858-20.729-13.412-41.558-20.017-62.37C166.907,428.621,167.176,428.189,167.579,426.634z"/>
	<path fill-rule="evenodd" clip-rule="evenodd" d="M434.087,357.823c13.059,14.997,25.136,28.865,37.616,43.196
		c-16.137,18.288-32.026,36.297-48.756,55.259C426.694,423.166,430.31,391.201,434.087,357.823z"/>
	<path fill-rule="evenodd" clip-rule="evenodd" d="M2563.576,357.858c3.771,32.945,7.383,64.449,11.141,97.226
		c-1.929-1.688-3.111-2.519-4.048-3.568c-13.599-15.286-27.079-30.673-40.795-45.846c-3.237-3.583-3.056-5.908,0.191-9.494
		C2541.098,384.007,2551.729,371.474,2563.576,357.858z"/>
	<path fill-rule="evenodd" clip-rule="evenodd" d="M2772.48,348.378c-3.243,36.362-6.314,70.8-9.391,105.237
		c-0.348,0.088-0.701,0.176-1.045,0.265c-2.231-4.344-4.473-8.681-6.686-13.029c-6.828-13.402-13.76-26.758-20.344-40.279
		c-0.927-1.904-1.158-5.445-0.01-6.868C2746.927,378.883,2759.19,364.338,2772.48,348.378z"/>
	<path fill-rule="evenodd" clip-rule="evenodd" d="M234.788,455.827c-3.169-35.869-6.213-70.277-9.382-106.107
		c1.96,1.756,2.975,2.473,3.746,3.395c10.924,13.071,21.901,26.103,32.607,39.348c1.329,1.648,2.35,5.05,1.55,6.682
		C254.192,417.813,244.692,436.296,234.788,455.827z"/>
	<path fill-rule="evenodd" clip-rule="evenodd" d="M308.995,475.035c26.563,24.423,52.053,47.861,78.42,72.109
		c-8.501,3.12-16.242,5.992-24.005,8.806c-13.218,4.798-13.211,4.773-19.25-7.775c-11.033-22.931-22.08-45.854-33.12-68.783
		C310.542,478.358,310.064,477.313,308.995,475.035z"/>
	<path fill-rule="evenodd" clip-rule="evenodd" d="M2610.232,547.224c26.044-23.944,51.254-47.131,76.463-70.314
		c0.251,0.145,0.496,0.287,0.746,0.434c-1.85,4.053-3.62,8.139-5.553,12.154c-10.42,21.714-20.996,43.357-31.239,65.158
		c-2.222,4.738-4.376,6.078-9.526,3.927C2631.381,554.518,2621.314,551.241,2610.232,547.224z"/>
	<path fill-rule="evenodd" clip-rule="evenodd" d="M2688.791,790.277c-3.224,11.256-6.068,21.19-9.002,31.431
		c-28.517-13.316-56.248-26.263-84.077-39.26C2626.436,785.033,2657.041,787.606,2688.791,790.277z"/>
	<path fill-rule="evenodd" clip-rule="evenodd" d="M317.871,821.739c-2.89-10.193-5.698-20.103-8.896-31.397
		c31.33-2.669,61.847-5.269,93.133-7.933C373.996,795.534,346.502,808.372,317.871,821.739z"/>
	<path fill-rule="evenodd" clip-rule="evenodd" d="M272.632,402.359c0-19.964,0-39.927,0-60.847
		c11.82,9.757,23.417,19.33,35.656,29.434c-11.653,11.118-22.732,21.689-33.814,32.262
		C273.861,402.926,273.248,402.641,272.632,402.359z"/>
	<path fill-rule="evenodd" clip-rule="evenodd" d="M2724.415,341.979c0,20.446,0,40.344,0,60.24
		c-0.515,0.201-1.035,0.402-1.55,0.604c-10.945-10.414-21.895-20.829-33.438-31.814
		C2701.152,361.279,2712.637,351.75,2724.415,341.979z"/>
	<path fill-rule="evenodd" clip-rule="evenodd" d="M220.797,449.533c-17.508-12.315-33.48-23.753-49.703-34.819
		c-4.155-2.836-5.69-5.946-5.509-10.896c0.363-9.927,0.108-19.878,0.108-29.816c0.653-0.117,1.303-0.237,1.955-0.357
		C185.072,398.525,202.494,423.401,220.797,449.533z"/>
	<path fill-rule="evenodd" clip-rule="evenodd" d="M2778.686,447.031c17.18-24.54,34.363-49.085,51.547-73.628
		c0.422,0.123,0.844,0.241,1.266,0.358c0,7.761-1.373,15.84,0.32,23.213c2.674,11.637-3.115,16.939-11.686,22.406
		c-12.854,8.205-25.068,17.405-37.563,26.169c-1.069,0.751-2.197,1.413-3.297,2.114
		C2779.078,447.453,2778.881,447.242,2778.686,447.031z"/>
	<path fill-rule="evenodd" clip-rule="evenodd" d="M2659.479,567.101c8.429-12.058,16.174-23.145,25.077-35.885
		c0,14.838,0,27.913,0,41.747C2676.596,571.104,2668.574,569.225,2659.479,567.101z"/>
	<path fill-rule="evenodd" clip-rule="evenodd" d="M312.74,530.667c8.99,12.825,16.996,24.253,25.512,36.401
		c-9.021,2.142-17.121,4.064-25.512,6.057C312.74,559.276,312.74,545.879,312.74,530.667z"/>
</g>
</svg>
